<svg width="14" height="14" viewBox="0 0 14 14" fill="none" xmlns="http://www.w3.org/2000/svg">
  <g id="Icon Space" clip-path="url(#clip0_1766_9516)">
    <path id="Subtract" fill-rule="evenodd" clip-rule="evenodd"
          d="M7.24881 13.75C10.9767 13.75 13.9988 10.7279 13.9988 7C13.9988 3.27208 10.9767 0.25 7.24881 0.25C3.52089 0.25 0.49881 3.27208 0.49881 7C0.49881 10.7279 3.52089 13.75 7.24881 13.75ZM9.87402 5.95405C10.1567 5.65123 10.1403 5.17664 9.83747 4.89402C9.53466 4.61139 9.06007 4.62776 8.77744 4.93057L6.38263 7.49644L5.68484 6.84227C5.38266 6.55897 4.90803 6.57428 4.62473 6.87647C4.34144 7.17865 4.35675 7.65328 4.65893 7.93658L5.90508 9.10485L6.45345 9.61894L6.96633 9.06943L9.87402 5.95405Z"
          fill="#fff"/>
  </g>
  <defs>
    <clipPath id="clip0_1766_9516">
      <rect width="13.5" height="13.5" fill="#fff" transform="translate(0.49881 0.25)"/>
    </clipPath>
  </defs>
</svg>
