<svg width="136" height="78" viewBox="0 0 136 78" fill="none" xmlns="http://www.w3.org/2000/svg">
<mask id="mask0_1236_9807" style="mask-type:luminance" maskUnits="userSpaceOnUse" x="16" y="25" width="104" height="28">
<path d="M120 25H16V52.6244H120V25Z" fill="white"/>
</mask>
<g mask="url(#mask0_1236_9807)">
<mask id="mask1_1236_9807" style="mask-type:luminance" maskUnits="userSpaceOnUse" x="16" y="29" width="59" height="20">
<path d="M74.6164 29.6035H16V48.0196H74.6164V29.6035Z" fill="white"/>
</mask>
<g mask="url(#mask1_1236_9807)">
<path d="M41.1703 47.7534H36.4652L39.4081 29.9263H44.1128L41.1703 47.7534Z" fill="#FAFAFA"/>
<path d="M58.2246 30.3625C57.2965 30.0017 55.8244 29.6035 54.0044 29.6035C49.3581 29.6035 46.0862 32.031 46.066 35.5014C46.0275 38.0619 48.4087 39.484 50.1897 40.3378C52.0099 41.2101 52.6287 41.7795 52.6287 42.5572C52.6101 43.7514 51.1579 44.302 49.8033 44.302C47.9247 44.302 46.9182 44.0181 45.3887 43.3537L44.7691 43.0689L44.1107 47.0707C45.2142 47.5632 47.2474 48.0003 49.3581 48.0195C54.2949 48.0195 57.509 45.6296 57.5471 41.9313C57.5658 39.9018 56.3084 38.3469 53.5977 37.0764C51.9521 36.2606 50.9443 35.7106 50.9443 34.8759C50.9636 34.1172 51.7967 33.3401 53.6543 33.3401C55.1838 33.3021 56.3076 33.6623 57.1591 34.0228L57.5846 34.2121L58.2246 30.3625Z" fill="#FAFAFA"/>
<path d="M64.4767 41.4379C64.8641 40.4136 66.3555 36.45 66.3555 36.45C66.3355 36.488 66.7419 35.4069 66.974 34.7433L67.3032 36.2793C67.3032 36.2793 68.1939 40.5465 68.387 41.4379C67.6525 41.4379 65.406 41.4379 64.4767 41.4379ZM70.2845 29.9263H66.6448C65.5229 29.9263 64.6701 30.2484 64.1858 31.4054L57.1971 47.7531H62.134C62.134 47.7531 62.9468 45.5528 63.1215 45.0788C63.663 45.0788 68.4651 45.0788 69.1626 45.0788C69.2978 45.7047 69.724 47.7531 69.724 47.7531H74.0803L70.2845 29.9263Z" fill="#FAFAFA"/>
<path d="M32.5346 29.9263L27.9268 42.0826L27.4233 39.6172C26.5715 36.7723 23.8999 33.6814 20.9185 32.1447L25.1389 47.7344H30.1143L37.5098 29.9263H32.5346Z" fill="#FAFAFA"/>
<path d="M23.6474 29.9292H16.0775L16 30.2893C21.9049 31.7688 25.8157 35.3347 27.4225 39.6208L25.7769 31.4277C25.506 30.2892 24.6734 29.9667 23.6474 29.9292Z" fill="#FAA61A"/>
</g>
<mask id="mask2_1236_9807" style="mask-type:luminance" maskUnits="userSpaceOnUse" x="84" y="25" width="37" height="28">
<path d="M120 25H84.1333V52.624H120V25Z" fill="white"/>
</mask>
<g mask="url(#mask2_1236_9807)">
<path d="M118.341 52.2512V52.3208H118.405C118.42 52.3208 118.431 52.3174 118.441 52.312C118.45 52.3066 118.455 52.2971 118.455 52.2857C118.455 52.2742 118.45 52.2655 118.441 52.26C118.431 52.254 118.42 52.2512 118.405 52.2512H118.341ZM118.406 52.2027C118.44 52.2027 118.466 52.2101 118.484 52.225C118.503 52.2399 118.512 52.26 118.512 52.2857C118.512 52.3073 118.506 52.3248 118.489 52.3389C118.476 52.3525 118.455 52.3612 118.428 52.3646L118.513 52.4625H118.447L118.366 52.3653H118.341V52.4625H118.284V52.2027H118.406ZM118.389 52.5521C118.42 52.5521 118.449 52.5461 118.475 52.5346C118.501 52.5231 118.525 52.5076 118.545 52.488C118.565 52.4684 118.58 52.4456 118.592 52.4186C118.603 52.3923 118.61 52.3639 118.61 52.3335C118.61 52.3032 118.603 52.275 118.592 52.2486C118.58 52.2222 118.565 52.1986 118.545 52.1791C118.525 52.1596 118.501 52.1441 118.475 52.1326C118.449 52.1219 118.42 52.1163 118.389 52.1163C118.358 52.1163 118.328 52.1219 118.301 52.1326C118.275 52.1441 118.25 52.1596 118.229 52.1791C118.211 52.1986 118.195 52.2222 118.184 52.2486C118.172 52.275 118.166 52.3032 118.166 52.3335C118.166 52.3639 118.172 52.3923 118.184 52.4186C118.195 52.4456 118.211 52.4684 118.229 52.488C118.25 52.5076 118.275 52.5231 118.301 52.5346C118.328 52.5461 118.358 52.5521 118.389 52.5521ZM118.389 52.0537C118.43 52.0537 118.467 52.0611 118.502 52.076C118.538 52.0901 118.567 52.1103 118.595 52.136C118.621 52.1609 118.64 52.1906 118.657 52.225C118.67 52.2588 118.678 52.2951 118.678 52.3335C118.678 52.372 118.67 52.4084 118.657 52.4422C118.64 52.4759 118.621 52.5056 118.595 52.5312C118.567 52.5561 118.538 52.5764 118.502 52.5912C118.467 52.6061 118.43 52.6135 118.389 52.6135C118.348 52.6135 118.31 52.6061 118.275 52.5912C118.238 52.5764 118.208 52.5561 118.181 52.5312C118.155 52.5056 118.135 52.4759 118.119 52.4422C118.106 52.4084 118.098 52.372 118.098 52.3335C118.098 52.2951 118.106 52.2588 118.119 52.225C118.135 52.1906 118.155 52.1609 118.181 52.136C118.208 52.1103 118.238 52.0901 118.275 52.076C118.31 52.0611 118.348 52.0537 118.389 52.0537ZM91.6556 51.0534C91.6556 50.5584 91.9848 50.1517 92.5244 50.1517C93.0401 50.1517 93.3874 50.5409 93.3874 51.0534C93.3874 51.566 93.0401 51.9552 92.5244 51.9552C91.9848 51.9552 91.6556 51.5485 91.6556 51.0534ZM93.9755 51.0534V49.6451H93.3523V49.9872C93.1543 49.7335 92.8545 49.5743 92.4473 49.5743C91.6432 49.5743 91.0133 50.1935 91.0133 51.0534C91.0133 51.9141 91.6432 52.5325 92.4473 52.5325C92.8545 52.5325 93.1543 52.3733 93.3523 52.1198V52.4617H93.9755V51.0534ZM115.03 51.0534C115.03 50.5584 115.36 50.1517 115.898 50.1517C116.414 50.1517 116.762 50.5409 116.762 51.0534C116.762 51.566 116.414 51.9552 115.898 51.9552C115.36 51.9552 115.03 51.5485 115.03 51.0534ZM117.349 51.0534V48.5142H116.726V49.9872C116.528 49.7335 116.229 49.5743 115.821 49.5743C115.018 49.5743 114.388 50.1935 114.388 51.0534C114.388 51.9141 115.018 52.5325 115.821 52.5325C116.229 52.5325 116.528 52.3733 116.726 52.1198V52.4617H117.349V51.0534ZM101.709 50.1227C102.11 50.1227 102.368 50.3702 102.434 50.8059H100.948C101.014 50.3992 101.265 50.1227 101.709 50.1227ZM101.721 49.5743C100.881 49.5743 100.294 50.1754 100.294 51.0534C100.294 51.9492 100.906 52.5325 101.763 52.5325C102.195 52.5325 102.59 52.4266 102.937 52.138L102.633 51.6841C102.392 51.8723 102.087 51.9788 101.798 51.9788C101.398 51.9788 101.031 51.796 100.942 51.2888H103.07C103.075 51.2127 103.082 51.1357 103.082 51.0534C103.075 50.1754 102.524 49.5743 101.721 49.5743ZM109.245 51.0534C109.245 50.5584 109.574 50.1517 110.114 50.1517C110.629 50.1517 110.977 50.5409 110.977 51.0534C110.977 51.566 110.629 51.9552 110.114 51.9552C109.574 51.9552 109.245 51.5485 109.245 51.0534ZM111.565 51.0534V49.6451H110.941V49.9872C110.743 49.7335 110.444 49.5743 110.036 49.5743C109.232 49.5743 108.603 50.1935 108.603 51.0534C108.603 51.9141 109.232 52.5325 110.036 52.5325C110.444 52.5325 110.743 52.3733 110.941 52.1198V52.4617H111.565V51.0534ZM105.725 51.0534C105.725 51.908 106.331 52.5325 107.255 52.5325C107.686 52.5325 107.974 52.4381 108.285 52.1966L107.987 51.7017C107.753 51.8668 107.507 51.9552 107.236 51.9552C106.739 51.9492 106.373 51.5958 106.373 51.0534C106.373 50.5112 106.739 50.1578 107.236 50.1517C107.507 50.1517 107.753 50.2401 107.987 50.4053L108.285 49.9103C107.974 49.6688 107.686 49.5743 107.255 49.5743C106.331 49.5743 105.725 50.1989 105.725 51.0534ZM113.759 49.5743C113.398 49.5743 113.164 49.7396 113.004 49.9872V49.6451H112.386V52.4617H113.01V50.8828C113.01 50.4168 113.213 50.1578 113.62 50.1578C113.748 50.1578 113.879 50.1754 114.011 50.2286L114.203 49.6512C114.065 49.5979 113.885 49.5743 113.759 49.5743ZM97.0567 49.869C96.757 49.6748 96.344 49.5743 95.8882 49.5743C95.1621 49.5743 94.695 49.9164 94.695 50.4761C94.695 50.9354 95.0432 51.2186 95.6836 51.3071L95.9776 51.3481C96.3202 51.3954 96.481 51.4838 96.481 51.6429C96.481 51.8608 96.2536 51.9849 95.8273 51.9849C95.3962 51.9849 95.0851 51.8493 94.8747 51.6902L94.5807 52.167C94.9224 52.4145 95.3544 52.5325 95.8216 52.5325C96.6494 52.5325 97.129 52.1494 97.129 51.6133C97.129 51.1182 96.7513 50.8592 96.128 50.7708L95.834 50.729C95.5647 50.6939 95.3477 50.6413 95.3477 50.4525C95.3477 50.2462 95.5523 50.1227 95.8939 50.1227C96.2593 50.1227 96.6132 50.2582 96.7874 50.3641L97.0567 49.869ZM105.096 49.5743C104.736 49.5743 104.503 49.7396 104.341 49.9872V49.6451H103.723V52.4617H104.347V50.8828C104.347 50.4168 104.55 50.1578 104.958 50.1578C105.084 50.1578 105.215 50.1754 105.348 50.2286L105.54 49.6512C105.402 49.5979 105.222 49.5743 105.096 49.5743ZM99.7791 49.6451H98.7601V48.7907H98.1301V49.6451H97.5487V50.205H98.1301V51.4899C98.1301 52.1433 98.3879 52.5325 99.1244 52.5325C99.3947 52.5325 99.7068 52.4502 99.9048 52.3147L99.7249 51.79C99.5384 51.8959 99.3348 51.9492 99.173 51.9492C98.8608 51.9492 98.7601 51.7603 98.7601 51.4777V50.205H99.7791V49.6451ZM90.4623 52.4617V50.6939C90.4623 50.0283 90.0312 49.5804 89.3347 49.5743C88.9693 49.5682 88.5925 49.6802 88.328 50.0755C88.13 49.7631 87.8189 49.5743 87.3811 49.5743C87.0748 49.5743 86.776 49.6627 86.542 49.9924V49.6451H85.9177V52.4617H86.5477V50.9003C86.5477 50.4113 86.8235 50.1517 87.2489 50.1517C87.6628 50.1517 87.8722 50.4168 87.8722 50.8943V52.4617H88.5021V50.9003C88.5021 50.4113 88.7894 50.1517 89.2035 50.1517C89.6287 50.1517 89.8324 50.4168 89.8324 50.8943V52.4617H90.4623Z" fill="#FAFAFA"/>
<path d="M118.725 43.0945V42.6831H118.616L118.49 42.9656L118.365 42.6831H118.255V43.0945H118.333V42.7842L118.45 43.052H118.531L118.648 42.7835V43.0945H118.725ZM118.033 43.0945V42.7532H118.173V42.6837H117.816V42.7532H117.956V43.0945H118.033Z" fill="#F79410"/>
<path d="M106.319 44.8644H96.8759V28.1836H106.319V44.8644Z" fill="#FF5F00"/>
<path d="M97.4825 36.5222C97.4825 33.1384 99.0943 30.1244 101.604 28.1817C99.7691 26.7613 97.452 25.9136 94.9341 25.9136C88.9745 25.9136 84.1434 30.6631 84.1434 36.5222C84.1434 42.3814 88.9745 47.1309 94.9341 47.1309C97.452 47.1309 99.7691 46.2832 101.604 44.8628C99.0943 42.9203 97.4825 39.9061 97.4825 36.5222Z" fill="#EB001B"/>
<path d="M119.054 36.5222C119.054 42.3814 114.223 47.1309 108.263 47.1309C105.746 47.1309 103.429 46.2832 101.592 44.8628C104.103 42.9203 105.715 39.9061 105.715 36.5222C105.715 33.1384 104.103 30.1244 101.592 28.1817C103.429 26.7613 105.746 25.9136 108.263 25.9136C114.223 25.9136 119.054 30.6631 119.054 36.5222Z" fill="#F79E1B"/>
</g>
</g>
</svg>
