<svg xmlns="http://www.w3.org/2000/svg" width="24" height="24"><path style="stroke:none;fill-rule:evenodd;fill:#fff;fill-opacity:1" d="M12.273 3.234a8.36 8.36 0 0 0-4.918 1.403 8.33 8.33 0 0 0-3.375 4.61 1.35 1.35 0 0 0-.539.046c-.789.227-1.378.871-1.648 1.441-.344.743-.492 1.723-.336 2.735.152 1.008.578 1.84 1.113 2.36.535.515 1.137.683 1.739.558.894-.192 1.336-.336 1.21-1.168l-.605-4.035a7.08 7.08 0 0 1 3.145-5.5 7.097 7.097 0 0 1 4.171-1.196 7.115 7.115 0 0 1 6.047 3.782c.477.906.754 1.902.809 2.925l-.422 2.82a7.087 7.087 0 0 1-5.996 4.629h-1.805a.86.86 0 0 0-.593.247.821.821 0 0 0-.246.594v.445a.821.821 0 0 0 .246.593c.078.079.168.141.27.184a.854.854 0 0 0 .323.063h2.274a.821.821 0 0 0 .593-.247.864.864 0 0 0 .184-.273.899.899 0 0 0 .063-.32v-.23a8.399 8.399 0 0 0 4.988-3.509l.726.196c.594.152 1.207-.043 1.739-.559.535-.52.96-1.351 1.113-2.36.156-1.011.004-1.991-.336-2.734-.344-.742-.855-1.214-1.445-1.386a2.977 2.977 0 0 0-.746-.102 8.33 8.33 0 0 0-2.93-4.289 8.368 8.368 0 0 0-4.813-1.723zm0 0"/><path style="stroke:none;fill-rule:evenodd;fill:#fff;fill-opacity:1" d="M14.938 10.492a1.091 1.091 0 0 1 1.09 1.09c-.005.29-.118.566-.321.773a1.101 1.101 0 0 1-1.543 0 1.107 1.107 0 0 1-.238-1.19 1.12 1.12 0 0 1 .594-.59c.132-.055.273-.083.418-.083zm-2.938 0c.215 0 .426.067.605.184a1.1 1.1 0 0 1 .465 1.12c-.043.212-.148.407-.3.56a1.098 1.098 0 0 1-1.188.234 1.07 1.07 0 0 1-.488-.402 1.064 1.064 0 0 1-.184-.606c0-.14.027-.285.082-.414A1.094 1.094 0 0 1 12 10.492zm-2.934 0c.145-.004.29.024.422.078.137.051.258.133.364.235a1.105 1.105 0 0 1 .328.777 1.105 1.105 0 0 1-.328.781c-.106.102-.227.18-.364.235a1.035 1.035 0 0 1-.422.074 1.087 1.087 0 0 1-1.074-1.09 1.086 1.086 0 0 1 1.074-1.09zM12 5.81c-3.2 0-5.773 2.492-5.773 5.773 0 1.578.593 2.969 1.566 3.992l-.344 1.547c-.113.508.239.848.696.594l1.507-.84c.743.32 1.54.484 2.348.48 3.2 0 5.773-2.488 5.773-5.773 0-3.281-2.574-5.773-5.773-5.773zm0 0"/></svg>