<svg width="24" height="24" viewBox="0 0 24 24" fill="none" xmlns="http://www.w3.org/2000/svg">
<path d="M4 20C3.45 20 2.97917 19.8042 2.5875 19.4125C2.19583 19.0208 2 18.55 2 18V4C2 3.45 2.19583 2.97917 2.5875 2.5875C2.97917 2.19583 3.45 2 4 2H18C18.55 2 19.0208 2.19583 19.4125 2.5875C19.8042 2.97917 20 3.45 20 4V10.7C19.6833 10.55 19.3583 10.4208 19.025 10.3125C18.6917 10.2042 18.35 10.125 18 10.075V4H4V18H10.05C10.1 18.3667 10.1792 18.7167 10.2875 19.05C10.3958 19.3833 10.525 19.7 10.675 20H4ZM4 18V4V10.075V10V18ZM6 16H10.075C10.125 15.65 10.2042 15.3083 10.3125 14.975C10.4208 14.6417 10.5417 14.3167 10.675 14H6V16ZM6 12H12.1C12.6333 11.5 13.2292 11.0833 13.8875 10.75C14.5458 10.4167 15.25 10.1917 16 10.075V10H6V12ZM6 8H16V6H6V8Z" fill="white"/>
<path fill-rule="evenodd" clip-rule="evenodd" d="M17 22C19.7614 22 22 19.7614 22 17C22 14.2386 19.7614 12 17 12C14.2386 12 12 14.2386 12 17C12 19.7614 14.2386 22 17 22ZM14.0518 17.805L15.7579 19.568C15.966 19.783 16.3077 19.783 16.5158 19.568L19.9482 16.021C20.1506 15.8119 20.1506 15.4771 19.9482 15.2679L19.7483 15.0613C19.5402 14.8463 19.1985 14.8463 18.9904 15.0613L16.1369 18.0101L15.0096 16.8452C14.8016 16.6302 14.4598 16.6302 14.2518 16.8452L14.0518 17.0519C13.8494 17.261 13.8494 17.5958 14.0518 17.805Z" fill="white"/>
</svg>
