<svg width="20" height="20" viewBox="0 0 20 20" fill="none" xmlns="http://www.w3.org/2000/svg">
  <path fill-rule="evenodd" clip-rule="evenodd"
        d="M10 20C15.5228 20 20 15.5228 20 10C20 4.47715 15.5228 0 10 0C4.47715 0 0 4.47715 0 10C0 15.5228 4.47715 20 10 20ZM13.6252 8.20405C13.9078 7.90123 13.8915 7.42664 13.5887 7.14402C13.2858 6.86139 12.8113 6.87776 12.5286 7.18057L8.73382 11.2464L7.43603 10.0298C7.13385 9.74647 6.65922 9.76178 6.37592 10.064C6.09263 10.3662 6.10794 10.8408 6.41012 11.1241L8.25628 12.8548L8.80464 13.3689L9.31752 12.8194L13.6252 8.20405Z"
        fill="#fff"/>
</svg>
