<svg width="48" height="48" viewBox="0 0 48 48" fill="none" xmlns="http://www.w3.org/2000/svg">
<path fill-rule="evenodd" clip-rule="evenodd" d="M24 44C35.0457 44 44 35.0457 44 24C44 12.9543 35.0457 4 24 4C12.9543 4 4 12.9543 4 24C4 35.0457 12.9543 44 24 44ZM36 30.562V27.0045C36 26.3269 35.8873 25.7489 35.662 25.2706C35.4571 24.7723 35.201 24.3936 34.8937 24.1345C34.6069 23.8754 34.2177 23.6761 33.726 23.5366C33.2343 23.3772 32.7836 23.2775 32.3739 23.2377C31.9641 23.1978 31.4725 23.1779 30.8988 23.1779C30.3252 23.1779 29.8335 23.1978 29.4238 23.2377C29.0141 23.2775 28.5634 23.3772 28.0717 23.5366C27.58 23.6761 27.1805 23.8754 26.8732 24.1345C26.5659 24.3936 26.2996 24.7723 26.0743 25.2706C25.8694 25.7489 25.767 26.3269 25.767 27.0045V30.562C25.767 31.9771 26.1869 32.9038 27.0269 33.3423C27.8668 33.7808 29.1575 34 30.8988 34C32.6197 34 33.9001 33.7808 34.7401 33.3423C35.58 32.9038 36 31.9771 36 30.562ZM20.4507 34L30.4072 14H27.7337L17.7772 34H20.4507ZM22.233 21.9223V18.3647C22.233 17.6871 22.1204 17.1091 21.895 16.6308C21.6901 16.1325 21.4341 15.7539 21.1268 15.4948C20.84 15.2357 20.4507 15.0364 19.959 14.8969C19.4674 14.7374 19.0166 14.6378 18.6069 14.5979C18.1972 14.558 17.7055 14.5381 17.1319 14.5381C16.5583 14.5381 16.0666 14.558 15.6569 14.5979C15.2471 14.6378 14.7964 14.7374 14.3047 14.8969C13.8131 15.0364 13.4136 15.2357 13.1063 15.4948C12.799 15.7539 12.5327 16.1325 12.3073 16.6308C12.1024 17.1091 12 17.6871 12 18.3647V21.9223C12 23.3373 12.42 24.2641 13.2599 24.7025C14.0999 25.141 15.3905 25.3602 17.1319 25.3602C18.8528 25.3602 20.1332 25.141 20.9731 24.7025C21.8131 24.2641 22.233 23.3373 22.233 21.9223ZM32.589 26.4664V30.861C32.589 31.439 32.0256 31.728 30.8988 31.728C29.7516 31.728 29.178 31.439 29.178 30.861V26.4664C29.178 25.7887 29.7516 25.4499 30.8988 25.4499C32.0256 25.4499 32.589 25.7887 32.589 26.4664ZM18.822 17.8266V22.2212C18.822 22.7992 18.2586 23.0882 17.1319 23.0882C16.5583 23.0882 16.128 23.0384 15.8412 22.9387C15.5544 22.8191 15.411 22.58 15.411 22.2212V17.8266C15.411 17.149 15.9846 16.8102 17.1319 16.8102C18.2586 16.8102 18.822 17.149 18.822 17.8266Z" fill="#FF6E48"/>
</svg>
