<svg width="136" height="78" viewBox="0 0 136 78" fill="none" xmlns="http://www.w3.org/2000/svg">
<path d="M29.6558 42.282C28.1197 48.4427 21.8791 52.192 15.717 50.6557C9.55739 49.1198 5.80763 42.8796 7.34448 36.7193C8.87993 30.5578 15.1204 26.8082 21.2807 28.3441C27.4425 29.8801 31.1919 36.1209 29.6558 42.282Z" fill="#F7931A"/>
<path d="M23.5703 37.8624C23.7992 36.3322 22.634 35.5096 21.0408 34.9608L21.5576 32.888L20.2957 32.5735L19.7925 34.5917C19.4608 34.5091 19.12 34.4311 18.7815 34.3538L19.2883 32.3223L18.0271 32.0078L17.5099 34.08C17.2352 34.0174 16.9657 33.9557 16.7041 33.8906L16.7055 33.8841L14.9652 33.4496L14.6295 34.7972C14.6295 34.7972 15.5658 35.0118 15.546 35.0251C16.0571 35.1527 16.1494 35.4908 16.134 35.7589L15.5453 38.1204C15.5805 38.1294 15.6262 38.1423 15.6765 38.1624C15.6344 38.152 15.5895 38.1405 15.5431 38.1294L14.7179 41.4374C14.6554 41.5926 14.4969 41.8255 14.1396 41.7371C14.1522 41.7554 13.2224 41.5082 13.2224 41.5082L12.5959 42.9525L14.2381 43.3618C14.5436 43.4384 14.843 43.5185 15.1377 43.594L14.6155 45.6906L15.876 46.005L16.3932 43.9307C16.7375 44.0241 17.0717 44.1104 17.3988 44.1916L16.8834 46.2562L18.1453 46.5706L18.6675 44.478C20.8193 44.8852 22.4374 44.721 23.1185 42.7749C23.6673 41.2081 23.0912 40.3043 21.9591 39.7149C22.7835 39.5248 23.4046 38.9825 23.5703 37.8624ZM20.687 41.9049C20.2971 43.4718 17.6587 42.6248 16.8032 42.4124L17.4962 39.6347C18.3516 39.8482 21.0946 40.2709 20.687 41.9049ZM21.0774 37.8397C20.7216 39.265 18.5255 38.5409 17.8132 38.3633L18.4414 35.8441C19.1538 36.0217 21.4479 36.353 21.0774 37.8397Z" fill="#FAFAFA"/>
<path d="M55 39.4999C55 45.8513 49.8514 51 43.5001 51C37.1487 51 32 45.8513 32 39.4999C32 33.1487 37.1487 28 43.5001 28C49.8513 28 55 33.1487 55 39.4999Z" fill="#627EEA"/>
<g opacity="0.8">
<path d="M44.0249 32.5684L43.9325 32.8721V41.6879L44.0249 41.7771L48.2538 39.3583L44.0249 32.5684Z" fill="#FAFAFA"/>
<path d="M44.0247 32.5684L39.7958 39.3583L44.0247 41.7771V37.4983V32.5684Z" fill="#FAFAFA"/>
<path d="M44.0245 43.1085L43.9724 43.17V46.3103L44.0245 46.4575L48.2559 40.6909L44.0245 43.1085Z" fill="#FAFAFA"/>
<path d="M44.0247 46.4575V43.1085L39.7958 40.6909L44.0247 46.4575Z" fill="#FAFAFA"/>
<path d="M44.025 41.7764L48.2538 39.3576L44.025 37.4976V41.7764Z" fill="#FAFAFA"/>
<path d="M39.7958 39.3576L44.0246 41.7764V37.4976L39.7958 39.3576Z" fill="#FAFAFA"/>
</g>
<path d="M79.6558 42.282C78.1197 48.4427 71.8791 52.192 65.717 50.6557C59.5574 49.1198 55.8076 42.8796 57.3445 36.7193C58.8799 30.5578 65.1204 26.8082 71.2807 28.3441C77.4425 29.8801 81.1919 36.1209 79.6558 42.282Z" fill="#0088CC"/>
<path d="M68.5 47.4613L74.9193 36.2275C75.2123 35.7147 74.8421 35.0767 74.2514 35.0767H68.5M68.5 47.4613L62.0807 36.2275C61.7877 35.7147 62.158 35.0767 62.7486 35.0767H68.5M68.5 47.4613V35.0767" stroke="white" stroke-width="1.15385"/>
<path d="M105 39.4999C105 45.8512 99.8514 51 93.5001 51C87.1487 51 82 45.8512 82 39.4999C82 33.1487 87.1487 28 93.5001 28C99.8513 28 105 33.1487 105 39.4999Z" fill="#0A3227"/>
<path d="M92.5027 39.1295V36.8625H89.428V34.8755H98.02V36.8905H94.9453V39.1295H92.5027Z" fill="#04D79E"/>
<path fill-rule="evenodd" clip-rule="evenodd" d="M88.1062 39.3806C88.1062 38.625 90.5775 38.0093 93.6522 38.0093C96.727 38.0093 99.1982 38.625 99.1982 39.3806C99.1982 40.1363 96.727 40.752 93.6522 40.752C90.5775 40.752 88.1062 40.1363 88.1062 39.3806ZM98.7386 39.3803C98.5374 39.1005 96.8708 38.2328 93.6524 38.2328C90.4339 38.2328 88.7673 39.0725 88.5661 39.3803C88.7673 39.6602 90.4339 40.08 93.6524 40.08C96.8995 40.08 98.5374 39.6602 98.7386 39.3803Z" fill="#04D79E"/>
<path d="M94.9435 39.8283V38.261C94.5412 38.2331 94.1102 38.2051 93.6791 38.2051C93.2768 38.2051 92.9033 38.2051 92.5297 38.2331V39.8003C92.8745 39.8003 93.2768 39.8283 93.6791 39.8283C94.1102 39.8564 94.5412 39.8564 94.9435 39.8283Z" fill="#04D79E"/>
<path d="M93.6517 40.7523C93.2495 40.7523 92.8759 40.7523 92.5023 40.7243V44.8944H94.9161V40.6963C94.5139 40.7243 94.0827 40.7523 93.6517 40.7523Z" fill="#04D79E"/>
<path d="M130.139 39.5605C130.139 45.9118 124.973 51.0605 118.599 51.0605C112.226 51.0605 107.059 45.9118 107.059 39.5605C107.059 33.2092 112.226 28.0605 118.599 28.0605C124.973 28.0605 130.139 33.2092 130.139 39.5605" fill="#292C3B"/>
<path d="M118.054 42.6056L118.756 39.793L120.421 39.1469L120.834 37.494L120.82 37.453L119.182 38.0889L120.363 33.3662H117.015L115.472 39.5294L114.183 40.0297L113.757 41.7338L115.045 41.2339L114.135 44.8662H123.044L123.615 42.6056H118.054" fill="#FAFAFA"/>
</svg>
