<svg width="18" height="18" viewBox="0 0 18 18" fill="none" xmlns="http://www.w3.org/2000/svg">
<path fill-rule="evenodd" clip-rule="evenodd" d="M9 17.25C13.5563 17.25 17.25 13.5563 17.25 9C17.25 4.44365 13.5563 0.75 9 0.75C4.44365 0.75 0.75 4.44365 0.75 9C0.75 13.5563 4.44365 17.25 9 17.25ZM14.5723 4.79124V4.81957H14.893V5.00216H14.5723V5.03155H14.4596V4.96544H13.7802V5.03155H13.4811V4.98642H13.3532V5.11969H12.2198C12.2014 5.12914 12.1797 5.13753 12.1493 5.14278C12.108 5.19982 12.0875 5.23699 12.0715 5.26578C12.0365 5.32916 12.0239 5.35192 11.8622 5.45654C11.8633 5.76191 11.8719 5.79444 11.9456 6.06518C11.9478 6.07148 11.9467 6.07777 11.9435 6.08407C11.9391 6.08932 11.9337 6.09351 11.9272 6.09456C11.8996 6.10021 11.8661 6.10787 11.8335 6.11532C11.7994 6.1231 11.7663 6.13067 11.7419 6.13549C11.7419 6.13586 11.742 6.13648 11.7421 6.13733C11.7447 6.15839 11.7648 6.32308 11.7408 6.44611C11.7007 6.64863 11.2044 7.09147 11.0852 7.11351C10.9709 7.13551 10.8465 7.07344 10.6842 6.99251C10.6143 6.95765 10.5375 6.91929 10.4513 6.88265C10.4224 6.87035 10.3684 6.83991 10.3049 6.80405C10.1948 6.74195 10.056 6.6636 9.96804 6.63499C9.85209 6.59827 9.73723 6.87005 9.88026 6.94246C9.88626 6.9455 9.89258 6.94865 9.89915 6.95192C9.96502 6.98472 10.0556 7.02982 10.0861 7.10616C10.1858 7.35591 10.071 8.31924 9.86618 8.51338C9.82035 8.51288 9.77788 8.49363 9.73819 8.47563C9.69341 8.45533 9.65218 8.43663 9.6137 8.44832C9.48475 8.51653 9.5671 8.8985 9.6137 8.96566C10.112 9.462 10.2606 9.8774 10.3853 10.2261C10.4594 10.4333 10.5251 10.6169 10.6507 10.78C10.7371 10.78 10.7432 10.8296 10.7527 10.906C10.7601 10.9657 10.7695 11.0417 10.8208 11.1232C10.8512 11.2176 10.8111 11.3792 10.7948 11.4411V11.6793C10.7905 11.6919 10.7862 11.7043 10.7818 11.7166C10.7775 11.7289 10.7732 11.7413 10.7688 11.7539V11.9627C10.7561 12.017 10.7427 12.0813 10.7298 12.1437C10.7184 12.1982 10.7074 12.2513 10.6973 12.2953C10.6765 12.3847 10.701 12.4653 10.7249 12.544C10.7546 12.6418 10.7834 12.7368 10.7233 12.8421C10.7233 12.8994 10.7233 12.9233 10.7149 12.9437C10.706 12.965 10.6879 12.9826 10.6507 13.0309C10.6507 13.087 10.6465 13.1619 10.642 13.2428C10.6318 13.4254 10.6199 13.6381 10.6507 13.7319C10.6821 13.8264 11.0343 14.2262 11.1232 14.264C11.173 14.2855 11.2283 14.3009 11.2825 14.3161C11.4606 14.3658 11.6271 14.4123 11.549 14.6617C11.132 14.7858 10.8156 14.6972 10.5523 14.6235C10.4215 14.5869 10.3038 14.5539 10.1934 14.5525L10.1772 14.6082C9.96478 14.6082 9.79357 14.5578 9.74806 14.542C9.74698 14.4864 9.81633 14.0593 9.84017 13.9911L9.91169 13.8809C9.92977 13.8306 9.91013 13.5569 9.89503 13.3466C9.88841 13.2544 9.88267 13.1744 9.88135 13.1306C9.74806 13.0362 9.72206 12.7476 9.72206 12.5892C9.69062 12.4874 9.68524 12.3697 9.67938 12.2416C9.67817 12.2152 9.67694 12.1883 9.67546 12.161C9.67438 12.1362 9.66861 12.1076 9.66244 12.0769C9.65008 12.0155 9.63608 11.9459 9.65487 11.8829C9.66578 11.849 9.69188 11.8254 9.71675 11.8029C9.73885 11.783 9.75999 11.7638 9.76865 11.7392V11.5597C9.80333 11.3719 9.79249 11.2848 9.67546 11.1725C9.66051 11.1727 9.64621 11.1728 9.63253 11.173C9.37954 11.1764 9.33565 11.177 9.1835 10.949C9.1806 10.9446 9.17647 10.9383 9.17127 10.9304C9.08728 10.8028 8.7228 10.2491 8.68504 10.2333C8.5016 10.1558 8.4369 10.1362 8.39296 10.0947C8.3554 10.0592 8.33302 10.0077 8.2646 9.89016C8.2581 9.89016 8.16816 9.91954 8.08797 10.035C7.96661 10.2113 7.75097 10.7832 7.6892 10.9836C7.67437 11.0327 7.67264 11.0843 7.67094 11.1346C7.6688 11.1982 7.66672 11.2599 7.63827 11.3121C7.61749 11.3483 7.57168 11.3713 7.53021 11.3921C7.49599 11.4092 7.46473 11.4249 7.45297 11.4453C7.41395 11.5134 7.39734 11.5574 7.38467 11.5911C7.35864 11.6601 7.34922 11.6851 7.19616 11.7832C7.17301 11.8129 7.16286 11.851 7.15258 11.8896C7.14506 11.9179 7.13746 11.9464 7.12464 11.9721C7.12056 11.9778 7.11654 11.9834 7.11255 11.989C7.09959 12.0071 7.08697 12.0248 7.07371 12.0424C7.0513 12.0889 7.06937 12.1585 7.08478 12.2179C7.09545 12.2589 7.10484 12.2951 7.09863 12.3153C7.05962 12.4454 7.00761 12.5776 6.9556 12.6983C6.90665 12.8109 6.88361 12.9406 6.8621 13.0618C6.8379 13.1981 6.81563 13.3236 6.76055 13.4014C6.73288 13.4397 6.68519 13.4386 6.63207 13.4374C6.58325 13.4364 6.52984 13.4352 6.48314 13.4643C6.48009 13.4927 6.43001 13.6131 6.3814 13.73C6.34365 13.8208 6.30677 13.9095 6.29351 13.9512V14.4927C6.3025 14.5208 6.31621 14.5485 6.33019 14.5767C6.36168 14.6403 6.39454 14.7066 6.37803 14.7866C6.35311 14.9093 5.911 14.9072 5.67152 14.8747C5.51006 14.8516 5.46238 14.7372 5.46455 14.605C5.46619 14.5262 5.55018 14.2286 5.63043 13.9443C5.70936 13.6647 5.78467 13.3979 5.77446 13.3646C5.59354 13.1673 5.71215 12.966 5.82539 12.7738C5.86746 12.7024 5.9088 12.6322 5.93375 12.564C5.95579 12.5045 5.96055 12.4337 5.96526 12.3636C5.97027 12.289 5.97523 12.2153 6.00094 12.1568C6.04427 12.0797 6.08787 12.0026 6.13148 11.9255C6.1751 11.8483 6.21873 11.7712 6.26209 11.694C6.35981 11.6052 6.37107 11.5681 6.38494 11.5224C6.39368 11.4936 6.40346 11.4614 6.43655 11.4107C6.44922 11.3915 6.46237 11.3734 6.4752 11.3557C6.53807 11.269 6.59352 11.1925 6.55033 11.0487C6.48439 10.8317 6.54796 10.5589 6.60927 10.2958C6.6467 10.1352 6.68328 9.97822 6.68903 9.83979C6.675 9.82584 6.64976 9.81811 6.6219 9.80958C6.56802 9.79307 6.50432 9.77355 6.49289 9.70022C6.45714 9.47461 6.58175 9.07269 6.6576 9.03492C6.6741 9.02667 6.69189 9.02602 6.70933 9.02538C6.72741 9.02471 6.7451 9.02406 6.76055 9.01498C6.76055 8.96685 6.74656 8.85655 6.72951 8.72208C6.68634 8.3816 6.62352 7.88612 6.71829 7.85227C6.76448 7.83579 6.84375 7.8236 6.91077 7.81329C6.96322 7.80523 7.00816 7.79832 7.02386 7.79141C7.0217 7.75048 6.99352 7.66443 6.95885 7.66023C6.90033 7.65184 6.78114 7.63085 6.68578 7.60881C6.39429 7.54375 6.66411 6.43036 6.66844 6.42512C6.70323 6.38095 6.79289 6.38183 6.88698 6.38275C7.00975 6.38395 7.14005 6.38522 7.16582 6.2866C7.20963 6.23236 7.21071 6.12403 7.21221 5.97465C7.21496 5.69917 7.21911 5.28407 7.49523 4.81118C7.63827 4.56562 7.91351 4.31692 8.23317 4.42186C8.27108 4.43446 8.28747 4.46135 8.30114 4.48377C8.32616 4.5248 8.34206 4.55087 8.46398 4.44704C8.46812 4.37568 8.44316 4.3135 8.41907 4.2535C8.41163 4.23497 8.40427 4.21666 8.39788 4.19834C8.08364 3.29168 9.14666 2.80057 9.8911 3.31896C9.89673 3.32113 9.9022 3.32323 9.90752 3.32527C9.98204 3.35386 10.0275 3.37129 10.0861 3.41341C10.0958 3.46123 10.1146 3.51783 10.1352 3.57955C10.2026 3.78191 10.2884 4.03938 10.1273 4.22353C10.0417 4.24137 9.93661 4.28754 9.87051 4.33266C9.86943 4.41556 9.88026 4.49217 9.89652 4.54149C9.89925 4.55004 9.90247 4.5576 9.90539 4.56444C9.91749 4.59284 9.92424 4.60869 9.86834 4.63068C9.85967 4.63488 9.86293 4.66217 9.86834 4.67266C10.0417 4.70624 10.227 4.64118 10.343 4.59605H10.4817V4.4271H10.5478V4.29488H10.6139V4.52365H10.7872V4.59605H13.3532V4.72513H13.4659V4.25291H13.5613V4.63698H13.7802V4.8563H14.4596V4.79124H14.5723ZM10.8458 5.61185C10.8588 5.71679 10.9704 5.86685 11.0051 5.91302C11.0775 5.91302 11.1826 5.74678 11.2414 5.65376C11.2521 5.63692 11.2612 5.62247 11.2684 5.61185H10.8458ZM10.9747 5.53H11.3225C11.3691 5.46494 11.4168 5.32957 11.3442 5.28235C11.303 5.25611 11.0235 5.24877 11.0885 5.37154C11.1308 5.45339 11.0701 5.47333 10.9747 5.47123V5.53Z" fill="#FF6E48"/>
</svg>
