<svg width="24" height="24" viewBox="0 0 24 24" fill="none" xmlns="http://www.w3.org/2000/svg">
<g clip-path="url(#clip0_6412_11532)">
<path d="M18.9312 5.63376C17.6344 5.03859 16.2659 4.61381 14.86 4.37001C14.8472 4.36786 14.8341 4.36972 14.8225 4.37531C14.8109 4.38091 14.8012 4.38997 14.795 4.40126C14.6187 4.71376 14.4237 5.12251 14.2875 5.44251C12.772 5.21252 11.2305 5.21252 9.71497 5.44251C9.56298 5.08603 9.39104 4.7384 9.19997 4.40126C9.19356 4.3901 9.18391 4.38114 9.17231 4.37556C9.16071 4.36998 9.14769 4.36805 9.13497 4.37001C7.72872 4.61251 6.35997 5.03751 5.06372 5.63376C5.05263 5.63799 5.04335 5.64594 5.03747 5.65626C2.44497 9.53001 1.73372 13.3088 2.08247 17.04C2.08372 17.0575 2.09497 17.075 2.10872 17.0863C3.61837 18.2045 5.30696 19.0583 7.10247 19.6113C7.11514 19.6153 7.12877 19.6151 7.14136 19.6108C7.15394 19.6066 7.16484 19.5984 7.17247 19.5875C7.55747 19.0625 7.89997 18.5088 8.19497 17.9263C8.20112 17.9143 8.20322 17.9006 8.20097 17.8873C8.19872 17.874 8.19223 17.8618 8.18247 17.8525C8.17601 17.8464 8.16834 17.8417 8.15997 17.8388C7.62142 17.6318 7.09984 17.3831 6.59997 17.095C6.58601 17.0871 6.57562 17.0741 6.57097 17.0588C6.56631 17.0434 6.56775 17.0268 6.57497 17.0125C6.57922 17.0032 6.58565 16.9951 6.59372 16.9888C6.69872 16.91 6.80372 16.8275 6.90372 16.745C6.91255 16.7379 6.92315 16.7333 6.93438 16.7318C6.94561 16.7303 6.95705 16.7318 6.96747 16.7363C10.2412 18.2313 13.785 18.2313 17.0187 16.7363C17.0295 16.7316 17.0414 16.7299 17.0531 16.7315C17.0647 16.733 17.0758 16.7377 17.085 16.745C17.185 16.8275 17.29 16.91 17.395 16.9888C17.4035 16.995 17.4103 17.0032 17.4149 17.0127C17.4194 17.0222 17.4215 17.0327 17.421 17.0432C17.4205 17.0538 17.4174 17.064 17.412 17.073C17.4066 17.0821 17.399 17.0896 17.39 17.095C16.8912 17.3858 16.369 17.6341 15.8287 17.8375C15.8201 17.8406 15.8123 17.8456 15.8058 17.8521C15.7993 17.8586 15.7943 17.8664 15.7912 17.875C15.7883 17.8834 15.7872 17.8922 15.7878 17.901C15.7885 17.9098 15.7909 17.9184 15.795 17.9263C16.095 18.5075 16.4387 19.0625 16.8162 19.5875C16.8238 19.5984 16.8347 19.6066 16.8473 19.6108C16.8599 19.6151 16.8735 19.6153 16.8862 19.6113C18.6847 19.06 20.3761 18.2061 21.8875 17.0863C21.895 17.081 21.9013 17.0741 21.9059 17.0661C21.9104 17.0581 21.9131 17.0492 21.9137 17.04C22.3312 12.7263 21.215 8.97876 18.9562 5.65751C18.9539 5.65202 18.9505 5.64708 18.9462 5.64298C18.9419 5.63889 18.9368 5.63575 18.9312 5.63376ZM8.68372 14.7675C7.69747 14.7675 6.88622 13.8625 6.88622 12.7525C6.88622 11.6413 7.68247 10.7363 8.68372 10.7363C9.69247 10.7363 10.4962 11.6488 10.4812 12.7525C10.4812 13.8625 9.68497 14.7675 8.68372 14.7675ZM15.3287 14.7675C14.3437 14.7675 13.5312 13.8625 13.5312 12.7525C13.5312 11.6413 14.3275 10.7363 15.3287 10.7363C16.3375 10.7363 17.1425 11.6488 17.1262 12.7525C17.1262 13.8625 16.3375 14.7675 15.3287 14.7675Z" fill="#FFFFFF"/>
</g>
<defs>
<clipPath id="clip0_6412_11532">
<rect width="20" height="20" fill="white" transform="translate(2 2)"/>
</clipPath>
</defs>
</svg>
