<svg width="18" height="18" viewBox="0 0 18 18" fill="none" xmlns="http://www.w3.org/2000/svg">
<g clip-path="url(#clip0_819_21540)">
<g clip-path="url(#clip1_819_21540)">
<path fill-rule="evenodd" clip-rule="evenodd" d="M17.2306 16.7241C16.7134 16.6392 16.2539 16.5529 15.7909 16.4956C15.6749 16.4814 15.4395 16.4404 15.5376 16.7241C15.5462 16.7482 15.453 16.8373 15.3954 16.8472C15.177 16.8875 14.9515 16.9491 14.7367 16.9286C14.2601 16.8826 13.7907 16.7715 13.3141 16.7284C13.1291 16.7107 12.9357 16.8302 12.745 16.8408C12.0138 16.8812 11.2819 16.901 10.5499 16.9321C10.3842 16.9392 10.1772 16.9003 10.062 16.9823C9.55266 17.346 9.06612 17.0786 8.5682 16.9922C8.411 16.9654 8.17983 17.0106 8.07598 17.1146C7.88321 17.3085 7.76442 17.2873 7.62145 17.0948C7.54391 16.9908 7.4742 16.8826 7.3924 16.7807C7.35186 16.7305 7.29282 16.6597 7.24161 16.6583C6.54736 16.6442 5.85384 16.6427 5.15959 16.6328C4.28752 16.6208 3.41545 16.5854 2.5441 16.5968C2.06325 16.6031 1.58596 16.6923 1.10867 16.5366C0.902387 16.4659 0.83339 16.3746 0.841214 16.1574C0.859708 15.5914 0.851173 15.0311 0.851884 14.4672C0.851884 13.9939 0.858997 13.5602 1.09373 13.0841C1.31708 12.637 1.20896 12.0285 1.24595 11.4908C0.651294 10.9758 0.931551 10.2697 0.854018 9.645C0.839792 9.53109 0.937953 9.362 1.03683 9.28205C1.34269 9.03939 1.36759 8.78681 1.19118 8.42317C1.07097 8.17272 0.977786 7.85718 1.01549 7.59328C1.09515 7.04781 0.935819 6.55257 0.840503 6.03257C0.758077 5.52639 0.731838 5.01274 0.762258 4.50086C0.793556 3.75093 0.898831 3.00382 0.941509 2.25388C0.957158 1.97089 0.861131 1.68789 0.857574 1.4049C0.854729 1.17567 0.981343 1.07097 1.25022 1.07521C2.40895 1.09573 3.56839 1.07026 4.72712 1.09997C5.18449 1.11129 5.63973 1.22166 6.09639 1.28817C6.58506 1.36104 6.97202 1.12332 7.36751 0.883483C7.51762 0.801333 7.68627 0.758486 7.8576 0.758965C8.57674 0.745523 9.29517 0.751183 10.0463 0.751183L9.97518 1.04196C10.2597 1.10563 10.5442 1.08582 10.7505 1.37306C10.9084 1.59097 11.4689 1.33981 11.5934 1.06884C11.6425 0.963429 11.7997 0.821931 11.9057 0.821931C12.7934 0.836789 13.6804 0.870041 14.566 0.931592C14.6997 0.940789 14.8206 1.12544 14.9216 1.20893C15.6451 0.91532 16.367 0.951401 17.0321 1.36245C17.1658 1.44523 17.1459 1.79756 17.1673 2.0289C17.1872 2.23407 17.1623 2.44278 17.1673 2.65008C17.1763 3.79196 17.186 4.93408 17.1964 6.07643C17.1964 6.12242 17.1964 6.20237 17.1715 6.21015C16.7917 6.35165 16.86 6.75987 16.6701 7.00819C16.5342 7.18648 16.5136 7.33434 16.6565 7.51334C17.2092 8.2088 17.0086 9.01109 16.9624 9.78649C16.9567 9.88059 16.8294 9.96761 16.7575 10.0582C16.7654 10.078 16.776 10.1176 16.7817 10.1169C17.2484 10.0709 17.2519 10.3553 17.2498 10.7041C17.2405 12.6023 17.2498 14.5005 17.2498 16.3987C17.2491 16.5133 17.2363 16.6279 17.2306 16.7241ZM2.54481 3.92921C2.62941 4.05173 2.72034 4.16981 2.81724 4.28296C3.56934 5.06308 4.32356 5.84155 5.07993 6.61837C5.67245 7.22539 6.27707 7.82109 6.86674 8.43024C7.33408 8.91345 7.77794 9.42072 8.24811 9.89828C8.80792 10.4692 9.40257 11.0069 9.95028 11.5892C10.6033 12.2853 11.2143 13.0211 11.8616 13.7222C12.0387 13.9147 12.2606 14.1319 12.4982 14.1899C12.9663 14.3038 13.4592 14.3151 13.9422 14.3668C14.1947 14.3936 14.4059 14.296 14.4885 14.0618C14.7815 13.2192 15.0575 12.3702 15.3328 11.522C15.4039 11.314 15.31 11.1682 15.1286 11.0486C14.4664 10.6086 13.8127 10.1551 13.1526 9.7115C11.5877 8.65876 10.019 7.60791 8.44657 6.55894C7.71178 6.07007 6.96206 5.60242 6.22941 5.11284C5.83178 4.84824 5.45337 4.55675 5.06285 4.28154C4.79327 4.09123 4.49381 3.93699 4.25338 3.71555C4.15647 3.6196 4.03414 3.55303 3.90064 3.52359C3.76715 3.49416 3.62799 3.50307 3.49939 3.54929C3.18428 3.64197 2.88624 3.79337 2.54481 3.92921ZM3.82517 10.6121C3.46951 11.4838 3.12382 12.2783 2.82364 13.0883C2.77741 13.2121 2.88339 13.4513 2.99507 13.5609C3.2724 13.8322 3.5738 14.078 3.89559 14.2953C4.07514 14.4168 4.28162 14.4933 4.49736 14.5182C5.20867 14.5889 5.8204 14.2224 6.47481 14.0441C6.69247 13.9847 6.89804 13.88 7.14842 13.7803L3.82517 10.6121ZM10.4831 4.27588C11.5322 5.07322 12.4868 5.80405 13.4499 6.52286C13.5403 6.59361 13.6847 6.58512 13.8383 6.62191C13.8824 6.32193 13.9137 6.06653 13.9585 5.81396C14.0033 5.56138 14.0802 5.30881 14.1072 5.0527C14.2082 4.10184 14.2637 4.24263 13.3617 3.74102C13.1754 3.63631 12.893 3.67027 12.6597 3.68937C12.4264 3.70848 12.1973 3.79338 11.9697 3.85705C11.5073 3.9844 11.0464 4.11599 10.4816 4.27588H10.4831Z" fill="#FF6E48"/>
</g>
</g>
<defs>
<clipPath id="clip0_819_21540">
<rect width="18" height="18" fill="white"/>
</clipPath>
<clipPath id="clip1_819_21540">
<rect width="16.5" height="16.5" fill="white" transform="translate(0.75 0.75)"/>
</clipPath>
</defs>
</svg>
