<svg width="24" height="24" viewBox="0 0 24 24" fill="none" xmlns="http://www.w3.org/2000/svg">
<path fill-rule="evenodd" clip-rule="evenodd" d="M5.91176 5.43128C5.91169 4.72848 6.12981 4.04275 6.53639 3.46752C6.94298 2.89229 7.51827 2.45554 8.18386 2.21677C8.84946 1.97801 9.57299 1.94884 10.2559 2.13325C10.9388 2.31766 11.5478 2.70668 12 3.2473C12.5758 2.55172 13.4047 2.10991 14.3067 2.0179C15.2086 1.92589 16.1107 2.19111 16.8168 2.75591C17.523 3.32072 17.9761 4.13947 18.0778 5.03423C18.1794 5.92898 17.9214 6.82743 17.3598 7.53431H18.3529C18.7006 7.53431 19.0448 7.6023 19.3659 7.73441C19.6871 7.86652 19.9789 8.06015 20.2247 8.30426C20.4705 8.54836 20.6655 8.83816 20.7985 9.15709C20.9315 9.47603 21 9.81787 21 10.1631V11.4775C21 11.6866 20.9163 11.8872 20.7674 12.0351C20.6185 12.183 20.4165 12.2661 20.2059 12.2661H13.1118C13.0701 12.2661 13.0287 12.2579 12.9902 12.2421C12.9517 12.2262 12.9167 12.203 12.8872 12.1737C12.8577 12.1444 12.8343 12.1096 12.8183 12.0714C12.8023 12.0331 12.7941 11.9921 12.7941 11.9507V8.31242C12.4953 8.1215 12.2275 7.88641 12 7.61527C11.7725 7.88603 11.5047 8.12076 11.2059 8.31137V11.9507C11.2059 12.0343 11.1724 12.1146 11.1128 12.1737C11.0533 12.2329 10.9725 12.2661 10.8882 12.2661H3.79412C3.5835 12.2661 3.38152 12.183 3.23259 12.0351C3.08367 11.8872 3 11.6866 3 11.4775V10.1631C3 9.81787 3.06847 9.47603 3.2015 9.15709C3.33452 8.83816 3.5295 8.54836 3.77531 8.30426C4.02111 8.06015 4.31292 7.86652 4.63407 7.73441C4.95523 7.6023 5.29944 7.53431 5.64706 7.53431H6.64024C6.16737 6.93396 5.91087 6.19348 5.91176 5.43128ZM11.2059 5.43128C11.2059 4.94325 11.0107 4.4752 10.6632 4.13011C10.3157 3.78501 9.84437 3.59114 9.35294 3.59114C8.86151 3.59114 8.39021 3.78501 8.04271 4.13011C7.69522 4.4752 7.5 4.94325 7.5 5.43128C7.5 5.91932 7.69522 6.38737 8.04271 6.73246C8.39021 7.07756 8.86151 7.27143 9.35294 7.27143C9.84437 7.27143 10.3157 7.07756 10.6632 6.73246C11.0107 6.38737 11.2059 5.91932 11.2059 5.43128ZM12.7941 5.43128C12.7941 5.67293 12.842 5.91222 12.9352 6.13548C13.0283 6.35873 13.1648 6.56159 13.3368 6.73246C13.5089 6.90334 13.7132 7.03888 13.938 7.13136C14.1628 7.22383 14.4037 7.27143 14.6471 7.27143C14.8904 7.27143 15.1313 7.22383 15.3561 7.13136C15.581 7.03888 15.7852 6.90334 15.9573 6.73246C16.1293 6.56159 16.2658 6.35873 16.359 6.13548C16.4521 5.91222 16.5 5.67293 16.5 5.43128C16.5 4.94325 16.3048 4.4752 15.9573 4.13011C15.6098 3.78501 15.1385 3.59114 14.6471 3.59114C14.1556 3.59114 13.6843 3.78501 13.3368 4.13011C12.9893 4.4752 12.7941 4.94325 12.7941 5.43128Z" fill="white"/>
<path d="M11.2059 14.0011C11.2059 13.9174 11.1725 13.8372 11.1129 13.778C11.0533 13.7189 10.9725 13.6856 10.8883 13.6856H5.27545C5.06743 13.6853 4.86601 13.7582 4.70702 13.8914C4.54804 14.0246 4.44181 14.2096 4.40722 14.4133C4.17224 15.7759 4.17224 17.1683 4.40722 18.531L4.6444 19.9074C4.72262 20.3583 4.94605 20.7718 5.28113 21.0858C5.61621 21.3998 6.04484 21.5973 6.50263 21.6487L7.63028 21.7739C8.7124 21.8937 9.79628 21.9691 10.8819 21.9999C10.9241 22.0008 10.966 21.9933 11.0052 21.9779C11.0444 21.9624 11.0801 21.9394 11.1103 21.9102C11.1404 21.8809 11.1644 21.846 11.1808 21.8074C11.1973 21.7688 11.2058 21.7274 11.2059 21.6855V14.0011ZM13.1182 21.9999C13.076 22.0008 13.0341 21.9933 12.9949 21.9779C12.9557 21.9624 12.92 21.9394 12.8898 21.9102C12.8597 21.8809 12.8357 21.846 12.8192 21.8074C12.8028 21.7688 12.7943 21.7274 12.7942 21.6855V14.0011C12.7942 13.9174 12.8276 13.8372 12.8872 13.778C12.9468 13.7189 13.0276 13.6856 13.1118 13.6856H18.7246C19.1545 13.6856 19.5209 13.9927 19.5929 14.4133C19.829 15.776 19.829 17.1682 19.5929 18.531L19.3567 19.9074C19.2785 20.3585 19.0549 20.7721 18.7196 21.0861C18.3843 21.4001 17.9554 21.5975 17.4975 21.6487L16.3698 21.7739C15.2896 21.894 14.2047 21.9694 13.1182 21.9999Z" fill="white"/>
</svg>
