<svg width="206" height="82" fill="none" xmlns="http://www.w3.org/2000/svg"><path d="M43.336 25.472c.819-.461 1.875.467 1.535 1.34-.218.804-1.402 1.053-1.9.365-.476-.515-.264-1.419.365-1.705zM34.608 26.413c.861-.592 2.127.278 1.9 1.289-.099.889-1.268 1.393-1.973.83-.745-.476-.697-1.697.073-2.119zM50.43 27.185c.761-.422 1.696.538 1.249 1.286-.278.648-1.289.708-1.635.09-.333-.45-.115-1.15.386-1.376zM48.27 41.743c7.359-3.407 14.152-7.949 20.323-13.196-1.631 1.974-3.622 3.63-5.483 5.386a98.436 98.436 0 0 1-17.619 12.68c-2.254 1.318-4.604 2.481-6.754 3.966-1.232.857-2.477 2.106-2.376 3.732.012 2.296 1.714 4.196 3.676 5.182-3.361-.04-6.72-.006-10.081-.017a.955.955 0 0 1-.852-.345c-1.764-1.663-2.32-4.432-1.532-6.693.965-2.363 3.446-3.522 5.626-4.53 5.002-2.11 10.172-3.812 15.071-6.165zM54.986 30.65c.767-.625 1.75.657.971 1.244-.784.742-1.852-.669-.971-1.244zM26.402 32.897c.98-.654 2.418.17 2.404 1.331.076 1.147-1.291 2.045-2.305 1.47-1.11-.496-1.17-2.229-.1-2.8zM21.871 43.362c.974-.674 2.435.138 2.424 1.307.088 1.15-1.28 2.048-2.297 1.485-1.104-.488-1.183-2.207-.127-2.792z" fill="#fff"/><path d="M11 9c21.28 0 42.559-.002 63.84.004v63.992C53.559 73.002 32.28 73 11 73V9.001z" fill="#3E6EA0"/><path d="M43.336 25.472c-.628.286-.84 1.19-.365 1.705.498.688 1.682.439 1.9-.365.34-.873-.717-1.801-1.535-1.34zM34.608 26.413c-.77.422-.818 1.643-.073 2.118.705.564 1.874.06 1.974-.83.226-1.01-1.04-1.88-1.9-1.288zM50.43 27.185c-.501.227-.72.926-.386 1.376.346.618 1.357.558 1.635-.09.447-.748-.488-1.708-1.25-1.286zM48.27 41.743c-4.9 2.353-10.07 4.055-15.072 6.165-2.18 1.008-4.66 2.167-5.626 4.53-.788 2.26-.232 5.03 1.532 6.693.22.26.506.373.852.345 3.362.011 6.72-.023 10.081.017-1.962-.986-3.664-2.886-3.675-5.182-.102-1.626 1.143-2.875 2.375-3.732 2.15-1.485 4.5-2.648 6.754-3.965a98.436 98.436 0 0 0 17.62-12.68c1.86-1.756 3.85-3.413 5.482-5.387-6.17 5.247-12.964 9.79-20.324 13.196zM54.986 30.65c-.88.575.187 1.986.971 1.244.779-.587-.204-1.87-.971-1.244zM26.402 32.897c-1.07.572-1.01 2.305.099 2.8 1.014.576 2.381-.322 2.305-1.469.014-1.16-1.424-1.985-2.404-1.33zM21.871 43.362c-1.056.585-.977 2.304.127 2.792 1.017.563 2.385-.335 2.297-1.485.011-1.169-1.45-1.981-2.424-1.307z" fill="#fff"/><path d="M86.725 58.935c-.006-10.733-.04-21.468.014-32.2 2.376.036 4.752.02 7.125.008.045 4.48.003 8.96.022 13.44 4.246.002 8.493.008 12.741-.003 0-4.475-.003-8.948 0-13.426 2.395-.003 4.788-.003 7.184 0 .003 10.724.003 21.451 0 32.175-2.396.003-4.789.003-7.184 0-.02-4.216.028-8.433-.023-12.647-4.239.028-8.479 0-12.718.015.003 4.205-.02 8.41.012 12.615-2.39.043-4.783.003-7.173.023zM118.928 26.751c2.393-.003 4.786 0 7.181 0 .009 8.586.003 17.175.003 25.764 4.554.014 9.11-.006 13.667.008-.029 2.144.048 4.29-.04 6.434-6.938-.07-13.876-.008-20.811-.03-.003-10.728-.003-21.452 0-32.176zM135.814 26.752c8.448-.003 16.892-.003 25.339 0-.006 2.082.023 4.16-.015 6.241-3.021-.022-6.039-.008-9.061-.008-.006 8.645.003 17.294-.003 25.942-2.387.003-4.777.003-7.164 0-.006-8.648.002-17.297-.003-25.945-3.044-.031-6.088.06-9.13-.045.077-2.059.012-4.123.037-6.185zM163.203 26.753c2.591-.003 5.183 0 7.776-.003 2.708 6.793 5.434 13.576 8.119 20.378 1.303-2.812 2.319-5.757 3.517-8.62 1.563-3.92 3.121-7.842 4.695-11.758 2.591.006 5.183-.003 7.774.003-4.31 10.727-8.587 21.47-12.919 32.186-2.019-.023-4.038-.006-6.054-.008-4.313-10.722-8.609-21.451-12.908-32.178z" fill="#FAFAFA"/></svg>