<svg width="31" height="31" viewBox="0 0 31 31" fill="none" xmlns="http://www.w3.org/2000/svg">
  <path
    d="M27.6787 15.905L16.4287 3.39591C15.955 2.86803 15.045 2.86803 14.5712 3.39591L3.32123 15.905C3.1593 16.0846 3.05301 16.3074 3.01529 16.5464C2.97756 16.7853 3.01002 17.0301 3.10873 17.251C3.30873 17.7025 3.75623 17.9927 4.24998 17.9927H6.74998V26.7491C6.74998 27.0809 6.88168 27.399 7.1161 27.6336C7.35052 27.8682 7.66846 28 7.99998 28H11.75C12.0815 28 12.3994 27.8682 12.6339 27.6336C12.8683 27.399 13 27.0809 13 26.7491V21.7455H18V26.7491C18 27.0809 18.1317 27.399 18.3661 27.6336C18.6005 27.8682 18.9185 28 19.25 28H23C23.3315 28 23.6494 27.8682 23.8839 27.6336C24.1183 27.399 24.25 27.0809 24.25 26.7491V17.9927H26.75C26.9921 17.9938 27.2292 17.9243 27.4325 17.7928C27.6358 17.6613 27.7965 17.4734 27.895 17.2521C27.9934 17.0308 28.0254 16.7855 27.987 16.5464C27.9486 16.3072 27.8415 16.0843 27.6787 15.905Z"
    fill="#fff"/>
</svg>
