<svg width="24" height="24" viewBox="0 0 24 24" fill="none" xmlns="http://www.w3.org/2000/svg">
<path d="M20.9543 8.29207C20.9121 7.33565 20.7574 6.67813 20.5358 6.10837C20.3072 5.50359 19.9555 4.96214 19.4947 4.51202C19.0445 4.0549 18.4994 3.69969 17.9015 3.4747C17.3283 3.25315 16.6741 3.09848 15.7175 3.05632C14.7538 3.01058 14.4478 3 12.0035 3C9.55919 3 9.25324 3.01058 8.29308 3.05274C7.33648 3.09491 6.67883 3.24971 6.1091 3.47113C5.50407 3.69969 4.96251 4.05133 4.51231 4.51202C4.0551 4.96214 3.69996 5.50717 3.47479 6.10494C3.2532 6.67813 3.0985 7.33208 3.05633 8.28849C3.01058 9.25205 3 9.55794 3 12.0018C3 14.4456 3.01058 14.7515 3.05275 15.7115C3.09493 16.6679 3.24976 17.3254 3.47136 17.8952C3.69996 18.5 4.0551 19.0414 4.51231 19.4916C4.96251 19.9487 5.50764 20.3039 6.10553 20.5289C6.67883 20.7504 7.33291 20.9051 8.28964 20.9473C9.24967 20.9896 9.55576 21 12.0001 21C14.4444 21 14.7503 20.9896 15.7105 20.9473C16.6671 20.9051 17.3247 20.7504 17.8945 20.5289C19.1044 20.0612 20.061 19.1048 20.5288 17.8952C20.7502 17.322 20.9051 16.6679 20.9472 15.7115C20.9894 14.7515 21 14.4456 21 12.0018C21 9.55794 20.9964 9.25205 20.9543 8.29207ZM19.333 15.6412C19.2943 16.5203 19.1466 16.995 19.0235 17.3114C18.721 18.0956 18.0985 18.718 17.3142 19.0204C16.9976 19.1435 16.5194 19.2911 15.6436 19.3297C14.694 19.3721 14.4092 19.3825 12.0071 19.3825C9.60494 19.3825 9.31658 19.3721 8.37042 19.3297C7.49117 19.2911 7.01638 19.1435 6.69985 19.0204C6.30955 18.8762 5.95427 18.6476 5.66591 18.3487C5.36696 18.0569 5.13836 17.7052 4.99411 17.315C4.87101 16.9985 4.72333 16.5203 4.68472 15.6448C4.64241 14.6953 4.63197 14.4105 4.63197 12.0088C4.63197 9.60711 4.64241 9.3188 4.68472 8.37297C4.72333 7.49389 4.87101 7.01918 4.99411 6.70271C5.13836 6.31235 5.36696 5.95728 5.66948 5.66883C5.96128 5.36995 6.31298 5.14139 6.70342 4.9973C7.01995 4.87423 7.49832 4.72657 8.37399 4.68783C9.32358 4.64567 9.60851 4.63509 12.0105 4.63509C14.4162 4.63509 14.701 4.64567 15.6472 4.68783C16.5264 4.72657 17.0012 4.87423 17.3177 4.9973C17.708 5.14139 18.0633 5.36995 18.3517 5.66883C18.6506 5.96072 18.8792 6.31235 19.0235 6.70271C19.1466 7.01918 19.2943 7.49732 19.333 8.37297C19.3752 9.32238 19.3858 9.60711 19.3858 12.0088C19.3858 14.4105 19.3752 14.6918 19.333 15.6412Z" fill="#FFFFFF"/>
<path d="M12 7C9.23963 7 7 9.23948 7 12C7 14.7605 9.23963 17 12 17C14.7605 17 17 14.7605 17 12C17 9.23948 14.7605 7 12 7ZM12 15.2434C10.2092 15.2434 8.75662 13.7909 8.75662 12C8.75662 10.2091 10.2092 8.75662 12 8.75662C13.7909 8.75662 15.2434 10.2091 15.2434 12C15.2434 13.7909 13.7909 15.2434 12 15.2434Z" fill="#FFFFFF"/>
<path d="M18 7C18 7.55223 17.5523 8 16.9999 8C16.4477 8 16 7.55223 16 7C16 6.44764 16.4477 6 16.9999 6C17.5523 6 18 6.44764 18 7Z" fill="#FFFFFF"/>
</svg>
