<svg width="97" height="81" viewBox="0 0 97 81" fill="none" xmlns="http://www.w3.org/2000/svg">
<path d="M23.3332 18.8391L64.2506 24.1014L96.3565 10.0176L17.9264 14.0347L23.3332 18.8391Z" fill="white"/>
<path d="M17.9264 14.0347L96.3565 10.0176C96.3565 10.0176 55.5376 12.5693 53.0192 12.5726C50.4727 12.5479 17.9264 14.0347 17.9264 14.0347Z" fill="white"/>
<path d="M53.828 12.1954L50.2253 12.3799L45.7681 21.7222L45.7742 21.7247L52.0812 22.5358L53.828 12.1954Z" fill="white"/>
<path d="M68.8789 54.5015L27.8905 59.1977L0.103096 80.4651L75.3194 57.9619L68.8789 54.5015Z" fill="white"/>
<path d="M27.8898 59.1978L68.8782 54.4735C68.8782 54.4735 55.1749 56.4735 48.3761 57.1816C41.5772 57.8897 27.8898 59.1978 27.8898 59.1978Z" fill="white"/>
<path d="M40.2618 57.7801L23.9507 73.3197L52.7418 56.3502L40.2618 57.7801Z" fill="white"/>
<path d="M75.3171 57.9618L67.5131 38.7259L64.9975 40.9391L68.8765 54.4734L75.3171 57.9618Z" fill="white"/>
<path d="M23.3337 18.8386L17.9268 14.0341L22.4154 44.6595L24.2592 42.2234L23.3337 18.8386Z" fill="white"/>
<path d="M24.3544 73.1892L96.3563 9.98911L64.2505 24.1009L23.9348 73.3296L24.3544 73.1892Z" fill="white"/>
<path d="M65.2299 23.6799L96.3575 10.0167C96.3575 10.0167 80.3038 16.7231 78.542 17.5366C76.7801 18.3501 65.2299 23.6799 65.2299 23.6799Z" fill="white"/>
<path d="M64.2486 24.101C66.8493 22.755 69.4781 21.5207 72.1349 20.2865C73.4493 19.6694 74.7917 19.0802 76.1061 18.4631L80.1054 16.6676L84.1327 14.9281C85.4752 14.3669 86.8176 13.7777 88.1601 13.2165C90.873 12.0941 93.558 10.9997 96.327 9.98906C93.7263 11.3351 91.0975 12.5694 88.4407 13.8036C87.1263 14.4207 85.7838 15.0099 84.4694 15.627L80.4701 17.4225L76.4428 19.162C75.1004 19.7232 73.7579 20.3124 72.4155 20.8736C69.7026 21.996 66.9896 23.0905 64.2486 24.101Z" fill="white"/>
<path d="M55.9371 0.586093L0.102621 80.4653L27.89 59.198L55.9371 0.586093Z" fill="white"/>
<path d="M68.8779 54.501C69.4379 54.7521 69.9979 55.0031 70.5299 55.2822C71.09 55.5612 71.622 55.8402 72.154 56.1193C72.6861 56.3983 73.2181 56.7054 73.7502 57.0124L74.5343 57.4869C74.7864 57.6545 75.0665 57.8219 75.3185 57.9895C75.0385 57.8779 74.7585 57.7384 74.4786 57.6269L73.6665 57.2363C73.1065 56.9573 72.5745 56.6782 72.0425 56.3992C71.5104 56.1201 70.9783 55.8131 70.4463 55.5061C69.9141 55.1431 69.3821 54.8361 68.8779 54.501Z" fill="white"/>
<path d="M17.9268 14.0341C18.4029 14.3972 18.8791 14.7602 19.3553 15.1512C19.8315 15.5422 20.2798 15.9333 20.728 16.3244C21.1762 16.7154 21.6245 17.1344 22.0448 17.5535L22.6892 18.1961C22.8854 18.4196 23.1095 18.6151 23.3337 18.8386C23.0816 18.6711 22.8575 18.4756 22.6054 18.2801L21.9051 17.7215C21.4289 17.3305 20.9806 16.9394 20.5324 16.5484C20.0842 16.1573 19.6359 15.7383 19.2156 15.3192C18.7674 14.9002 18.3471 14.4812 17.9268 14.0341Z" fill="white"/>
<path d="M0.103473 80.4658C2.31169 78.5608 4.57594 76.7116 6.84022 74.8904C7.98634 73.9658 9.13249 73.0692 10.2786 72.1726L13.7451 69.4826L17.2396 66.8486C18.4138 65.9799 19.5879 65.1112 20.7621 64.2425C23.1105 62.5331 25.4868 60.8237 27.9193 59.1981C25.7111 61.1031 23.4468 62.9523 21.1825 64.7735C20.0364 65.6981 18.8903 66.5947 17.7441 67.4914L14.2776 70.1533L10.7552 72.8153C9.58101 73.684 8.40684 74.5527 7.23267 75.4214C4.88429 77.1308 2.53591 78.8402 0.103473 80.4658Z" fill="white"/>
</svg>
