<svg width="61" height="60" viewBox="0 0 61 60" fill="none" xmlns="http://www.w3.org/2000/svg">
<g clip-path="url(#clip0_499_23232)">
<path d="M5.87117 9.91267C5.85976 9.87661 5.85103 9.84463 5.84029 9.81741C5.84029 9.81333 5.82619 9.81265 5.81813 9.81061C5.81008 9.80857 5.78054 9.82354 5.77718 9.83511C5.73693 9.96217 5.70376 10.0914 5.67783 10.2223C5.61473 10.6115 5.82954 10.8959 6.11083 11.0762C6.58881 11.3824 6.73851 11.8437 6.81974 12.3527C6.94729 13.1542 7.04061 13.9625 7.19165 14.7593C7.25006 15.0682 7.39909 15.3717 7.55416 15.6479C7.81665 16.1181 8.10196 16.574 8.48394 16.9645C8.99079 17.4823 9.59766 17.8355 10.2562 18.0859C10.795 18.2951 11.3513 18.4546 11.9184 18.5622C12.4071 18.6513 12.9254 18.7057 13.4141 18.6302C13.9424 18.5499 14.4641 18.3438 14.9581 18.1206C15.8604 17.7123 16.6022 17.0659 17.291 16.3515C17.575 16.0492 17.9282 15.8227 18.3194 15.6922C18.594 15.6017 18.8471 15.4465 19.117 15.337C19.2691 15.2663 19.4318 15.2219 19.5983 15.2057C20.4784 15.1682 21.3437 15.2186 22.0782 15.8072C22.533 16.1563 22.9061 16.6028 23.1711 17.1149C23.1939 17.1605 23.212 17.2081 23.2382 17.251C23.4208 17.5762 23.6363 17.6395 23.9397 17.4197C24.3915 17.0925 24.8796 16.8604 25.4334 16.8006C26.2497 16.7121 27.058 16.7625 27.8347 17.0571C28.7913 17.4197 29.3976 18.1594 29.8581 19.0412C30.1427 19.5855 30.2609 19.6359 30.816 19.376C31.0305 19.2634 31.2508 19.1628 31.476 19.0745C32.3178 18.7867 33.171 18.7289 34.0021 19.0868C34.6278 19.3605 35.1686 19.8009 35.567 20.3612C36.0503 21.0205 36.194 21.7486 36.1289 22.5474C36.0987 22.9356 36.0886 23.3251 36.0987 23.7143C36.1103 24.1563 36.0532 24.5974 35.9295 25.0214C35.7764 25.5412 35.6173 26.059 35.4475 26.5734C35.3367 26.9096 35.4032 27.2021 35.716 27.3546C36.1456 27.5648 36.5981 27.7274 37.0842 27.7404C37.3849 27.7478 37.638 27.6512 37.8179 27.3811C37.9481 27.1844 38.169 27.1987 38.3677 27.2157C38.8168 27.2559 39.1827 27.494 39.5466 27.7438C39.897 27.9853 40.2675 28.1962 40.626 28.4242C40.8711 28.5677 41.107 28.7268 41.3323 28.9005C42.015 29.4734 42.6964 30.049 43.3556 30.6498C43.9269 31.171 44.4794 31.7147 45.0165 32.2719C45.4944 32.7673 45.9563 33.283 46.3967 33.8124C46.6838 34.1649 46.9484 34.5356 47.1888 34.9222C47.6534 35.655 48.1287 36.383 48.5422 37.1465C48.945 37.8949 49.2773 38.6863 49.6405 39.4599C50.1776 40.6044 50.5468 41.8114 50.8704 43.0314C50.9986 43.5138 51.0637 44.0133 51.1819 44.4991C51.4316 45.5258 51.5007 46.575 51.588 47.6222C51.6498 48.3571 51.7283 49.0933 51.7276 49.8288C51.7276 50.6909 51.6706 51.555 51.5994 52.4144C51.5578 52.9172 51.4376 53.4126 51.3584 53.9113C51.2983 54.2794 51.3437 54.6573 51.4893 55C51.6722 54.7517 51.8423 54.4939 51.9988 54.2277C52.4366 53.3857 52.8255 52.5185 53.1636 51.6306C53.563 50.5977 53.998 49.575 54.3203 48.517C54.662 47.3929 54.9245 46.2396 55.1567 45.087C55.3239 44.2671 55.4038 43.4288 55.4978 42.5953C55.5495 42.1421 55.5501 41.6835 55.5709 41.2269C55.6038 40.5241 55.6428 39.8212 55.6629 39.1176C55.6904 38.1821 55.5636 37.2567 55.4803 36.3279C55.346 34.8167 55.0104 33.3463 54.6412 31.8834C54.3592 30.7601 54.0189 29.6496 53.5516 28.5882C53.2079 27.8084 52.8534 27.032 52.46 26.2747C52.1244 25.6385 51.7323 25.0357 51.3651 24.4185C51.1503 24.0579 50.9469 23.6898 50.7193 23.338C50.5851 23.1298 50.4065 22.9516 50.2588 22.7508C49.9372 22.3174 49.6419 21.8622 49.3015 21.4444C48.8698 20.9157 48.4066 20.4129 47.9528 19.9026C47.6286 19.5379 47.2969 19.1793 46.9707 18.8139C46.7793 18.6016 46.8364 18.3778 46.9458 18.1519C47.0801 17.8709 47.064 17.7606 46.8116 17.6075C46.4759 17.4034 46.1483 17.1755 45.7885 17.0292C45.3723 16.8604 44.9285 16.757 44.4908 16.6495C44.3344 16.6107 44.1599 16.6352 43.994 16.6495C43.8893 16.657 43.796 16.6781 43.741 16.5529C43.6738 16.3937 43.5281 16.361 43.3825 16.3882C43.2368 16.4154 43.1401 16.4005 43.0374 16.2678C42.9961 16.2239 42.9456 16.1898 42.8896 16.1681C42.8336 16.1465 42.7736 16.1378 42.7138 16.1426C42.5386 16.1705 42.4453 16.1174 42.3728 15.9684C42.3499 15.9077 42.3042 15.8586 42.2457 15.8319C42.1872 15.8053 42.1206 15.8032 42.0606 15.8262C41.9163 15.8697 41.8243 15.8262 41.7585 15.6847C41.6928 15.5432 41.5847 15.4615 41.4142 15.4928C41.3593 15.4943 41.3046 15.4865 41.2524 15.4697C41.1799 15.109 41.1799 15.109 40.6556 15.0566C40.6556 14.6661 40.3595 14.6661 40.0655 14.6715C40.0655 14.3769 39.9433 14.2211 39.6587 14.2116C39.6227 14.2065 39.5884 14.1927 39.5586 14.1716C39.5288 14.1504 39.5045 14.1224 39.4875 14.0898C39.4056 13.8618 39.2552 13.7951 39.0343 13.8441C39.0129 13.8489 38.9867 13.8319 38.9471 13.8196C38.8913 13.5638 38.8356 13.2876 38.453 13.3889C38.3858 13.112 38.2657 12.9038 37.9596 12.8773C37.9213 12.8773 37.8716 12.763 37.8636 12.697C37.858 12.6214 37.831 12.5492 37.7858 12.4888C37.7407 12.4285 37.6793 12.3826 37.6091 12.3567C37.5165 12.3146 37.4594 12.1914 37.3896 12.1023C37.2983 11.9873 37.2339 11.8301 37.1177 11.7621C36.6263 11.4754 36.1266 11.205 35.6187 10.951C34.9809 10.6312 34.3364 10.325 33.6893 10.0243C33.0294 9.71876 32.3661 9.41869 31.6982 9.13156C31.2068 8.92063 30.7093 8.71786 30.2051 8.53891C29.323 8.22524 28.4335 7.93129 27.5461 7.63259C27.0788 7.47564 26.61 7.323 26.1396 7.17467C26.0054 7.1318 25.8617 7.1182 25.7248 7.08213C25.1206 6.92291 24.5164 6.76029 23.9068 6.59971C23.688 6.54188 23.4987 6.55276 23.3698 6.78479C23.318 6.87093 23.2397 6.93741 23.1469 6.97394C22.8824 7.07124 22.7723 7.01205 22.6635 6.74464C22.6313 6.66639 22.6119 6.58338 22.5837 6.50309C22.5065 6.28196 22.3628 6.17309 22.1305 6.17241C21.9291 6.17241 21.764 6.22412 21.7022 6.46567C21.664 6.61673 21.5277 6.68273 21.3666 6.67796C21.2054 6.6732 21.1303 6.5793 21.098 6.42961C21.0792 6.34728 21.0416 6.26971 21.0175 6.18806C20.9342 5.90909 20.6979 5.89684 20.473 5.86758C20.2683 5.84104 20.1777 5.96964 20.0951 6.13499C20.0443 6.23113 19.968 6.31101 19.8749 6.36565C19.7191 6.45682 19.6064 6.40511 19.5339 6.23841C19.4828 6.12206 19.4311 6.00571 19.3875 5.88663C19.3096 5.67162 19.1331 5.59882 18.9357 5.58317C18.8433 5.56852 18.7488 5.58693 18.6683 5.63522C18.5878 5.68352 18.5264 5.75869 18.4947 5.84785C18.46 5.91648 18.4147 5.97898 18.3604 6.03292C18.3324 6.06665 18.2963 6.09249 18.2556 6.10793C18.2149 6.12337 18.1709 6.12788 18.128 6.12104C18.085 6.11419 18.0445 6.09622 18.0105 6.06886C17.9764 6.0415 17.9498 6.00568 17.9334 5.96488C17.8905 5.8635 17.8609 5.76076 17.8153 5.65733C17.7119 5.42939 17.5293 5.34502 17.2856 5.35318C17.0587 5.36135 16.9325 5.47974 16.8674 5.68727C16.8143 5.85602 16.6915 5.88187 16.5317 5.87983C16.3719 5.87779 16.3478 5.7662 16.3142 5.65053C16.2182 5.31848 16.0316 5.09735 15.659 5.09326C15.5847 5.08304 15.5117 5.06432 15.4415 5.03747C14.9313 4.90615 14.311 5.11231 14.166 5.77776C14.1318 5.93494 14.0948 6.09144 14.0532 6.24589C14.0116 6.40035 13.9189 6.49084 13.7377 6.43301C13.5457 6.37177 13.3497 6.32618 13.1557 6.27107C13.0069 6.22513 12.8501 6.21248 12.6961 6.23398C12.542 6.25548 12.3944 6.31061 12.2635 6.39559C11.5868 6.81881 10.9208 7.257 10.2334 7.66389C9.66412 8.0041 9.07605 8.30893 8.48797 8.62124C8.10331 8.82537 7.71327 9.02269 7.32189 9.21524C6.84257 9.44999 6.35989 9.67861 5.87117 9.91267ZM8.33155 13.1576C8.31208 12.3343 8.57457 11.6096 8.95454 10.919C9.04974 10.7213 9.15575 10.5291 9.27207 10.3434C9.66815 9.7834 10.2253 9.4044 10.7772 9.02745C11.3592 8.63008 12.0218 8.47631 12.7139 8.4001C13.5786 8.30553 14.3761 8.44161 15.0971 8.95669C15.6462 9.34929 16.0873 9.82558 16.3726 10.4536C16.6888 11.1415 16.7277 11.8634 16.7358 12.601C16.7425 13.2059 16.4498 13.7128 16.2457 14.2442C16.0987 14.6259 15.8523 14.9696 15.6415 15.3254C15.1939 16.0928 14.4783 16.6618 13.6363 16.9196C13.2348 17.0374 12.8202 17.1035 12.4024 17.1163C11.8781 17.1455 11.3518 17.0775 10.8705 16.8441C10.5478 16.6893 10.2386 16.5072 9.94607 16.2998C9.70177 16.1275 9.48042 15.9239 9.28751 15.6942C8.97078 15.3112 8.72739 14.8716 8.56987 14.398C8.43292 13.9836 8.3235 13.5781 8.33155 13.1576Z" fill="#FFFFFF"/>
</g>
<defs>
<clipPath id="clip0_499_23232">
<rect width="60" height="60" fill="white" transform="translate(0.666748)"/>
</clipPath>
</defs>
</svg>
