<svg width="22" height="22" viewBox="0 0 22 22" fill="none" xmlns="http://www.w3.org/2000/svg">
  <path d="M6.26888 6.51485L14.0536 7.61369L20.1663 4.71045L5.24121 5.52012L6.26888 6.51485Z" fill="#78818F"/>
  <path d="M5.24121 5.52012L20.1663 4.71045C20.1663 4.71045 12.3984 5.22716 11.9192 5.22716C11.4347 5.22138 5.24121 5.52012 5.24121 5.52012Z" fill="#78818F"/>
  <path d="M13.1712 5.61806L12.4233 5.65863L11.4955 7.76441L11.4968 7.76497L12.8058 7.94974L13.1712 5.61806Z" fill="#78818F"/>
  <path d="M14.9269 13.9004L7.12623 14.8604L1.8335 19.25L16.1516 14.6175L14.9269 13.9004Z" fill="#78818F"/>
  <path d="M7.12646 14.8599L14.9271 13.894C14.9271 13.894 12.3191 14.3039 11.0252 14.4485C9.7313 14.5931 7.12646 14.8599 7.12646 14.8599Z" fill="#78818F"/>
  <path d="M10.3421 15.8951L6.95201 19.3952L12.9331 15.5762L10.3421 15.8951Z" fill="#78818F"/>
  <path d="M16.1519 14.6177L14.6716 10.6387L14.1924 11.0956L14.9272 13.8948L16.1519 14.6177Z" fill="#78818F"/>
  <path d="M6.26889 6.51477L5.24121 5.52002L6.08785 11.8529L6.43928 11.3497L6.26889 6.51477Z" fill="#78818F"/>
  <path d="M6.44999 17.7518L20.1664 4.70459L14.0536 7.61361L6.37012 17.7807L6.44999 17.7518Z" fill="#78818F"/>
  <path d="M14.2402 7.52699L20.1667 4.71045C20.1667 4.71045 17.1103 6.09269 16.7748 6.26041C16.4394 6.42813 14.2402 7.52699 14.2402 7.52699Z" fill="#78818F"/>
  <path d="M14.0537 7.61366C14.5489 7.33606 15.0494 7.08159 15.5553 6.82711C15.8056 6.69988 16.0611 6.57843 16.3114 6.45119L17.0729 6.08105L17.8396 5.72248C18.0952 5.60681 18.3508 5.48535 18.6064 5.36969C19.1229 5.13835 19.6341 4.91279 20.1612 4.70459C19.666 4.9822 19.1655 5.23667 18.6596 5.49114C18.4094 5.61837 18.1538 5.73983 17.9035 5.86706L17.1421 6.2372L16.3753 6.59578C16.1197 6.71144 15.8641 6.8329 15.6085 6.94857C15.092 7.1799 14.5755 7.40546 14.0537 7.61366Z" fill="#78818F"/>
  <path d="M12.478 2.75L1.83398 19.2499L7.12672 14.8603L12.478 2.75Z" fill="#78818F"/>
  <path d="M14.9263 13.9004C15.0328 13.9524 15.1393 14.0045 15.2404 14.0623C15.3469 14.1202 15.4481 14.178 15.5493 14.2358C15.6504 14.2937 15.7516 14.3573 15.8528 14.4209L16.0019 14.5192C16.0498 14.5539 16.103 14.5886 16.151 14.6233C16.0977 14.6002 16.0445 14.5713 15.9912 14.5481L15.8368 14.4672C15.7303 14.4093 15.6291 14.3515 15.528 14.2937C15.4268 14.2358 15.3256 14.1722 15.2245 14.1086C15.1233 14.0334 15.0221 13.9698 14.9263 13.9004Z" fill="#78818F"/>
  <path d="M5.24121 5.52002C5.33173 5.5952 5.42225 5.67039 5.51277 5.75136C5.6033 5.83233 5.68849 5.91329 5.77369 5.99426C5.85888 6.07523 5.94408 6.16198 6.02395 6.24873L6.14642 6.38175C6.18369 6.42802 6.22629 6.4685 6.26889 6.51477C6.22097 6.48007 6.17837 6.43959 6.13045 6.3991L5.99733 6.28343C5.90681 6.20247 5.82161 6.1215 5.73641 6.04053C5.65122 5.95956 5.56602 5.87281 5.48615 5.78606C5.40095 5.69931 5.32108 5.61255 5.24121 5.52002Z" fill="#78818F"/>
  <path d="M1.8335 19.25C2.25415 18.8567 2.68546 18.475 3.11677 18.0991C3.33508 17.9082 3.5534 17.7232 3.77171 17.5381L4.43198 16.9829L5.09758 16.4392C5.32122 16.2599 5.54486 16.0807 5.7685 15.9014C6.21578 15.5486 6.66839 15.1958 7.13164 14.8604C6.71099 15.2536 6.27968 15.6353 5.84837 16.0113C5.63006 16.2021 5.41174 16.3872 5.19343 16.5723L4.53315 17.1217L3.86223 17.6711C3.63859 17.8504 3.41495 18.0297 3.19131 18.209C2.74403 18.5618 2.29675 18.9145 1.8335 19.25Z" fill="#78818F"/>
</svg>
