<svg width="40" height="40" viewBox="0 0 40 40" fill="none" xmlns="http://www.w3.org/2000/svg">
<path fill-rule="evenodd" clip-rule="evenodd" d="M20.7505 36.4674C20.2592 36.732 19.6425 36.7337 19.1512 36.4691C5.66657 29.2063 4.86609 15.0027 4.92291 10.9929C4.92756 10.673 5.02329 10.3612 5.19869 10.0947C5.3741 9.82809 5.62178 9.61801 5.91224 9.48943L19.2715 3.47897C19.4854 3.38326 19.7167 3.33367 19.9507 3.33338C20.1846 3.33309 20.4161 3.3821 20.6302 3.47728L34.083 9.48774C34.3778 9.61625 34.6291 9.82868 34.806 10.099C34.9829 10.3693 35.0778 10.6858 35.079 11.0097C35.0907 15.0398 34.1398 29.213 20.7505 36.4674ZM19.6461 23.9682C18.7244 23.9682 18.0132 23.6225 17.5124 22.9311C17.0189 22.2324 16.7722 21.2499 16.7722 19.9836C16.7722 18.6954 17.0189 17.7165 17.5124 17.0469C18.0132 16.3701 18.7244 16.0317 19.6461 16.0317C20.5751 16.0317 21.2863 16.3701 21.7798 17.0469C22.2733 17.7165 22.5201 18.6917 22.5201 19.9727C22.5201 21.2463 22.2733 22.2324 21.7798 22.9311C21.2863 23.6225 20.5751 23.9682 19.6461 23.9682ZM19.6461 22.5927C20.0671 22.5927 20.3791 22.3853 20.5823 21.9704C20.7928 21.5483 20.898 20.8824 20.898 19.9727C20.898 19.0629 20.7928 18.4079 20.5823 18.0076C20.3791 17.6073 20.0671 17.4072 19.6461 17.4072C19.2252 17.4072 18.9095 17.6073 18.699 18.0076C18.4958 18.4079 18.3942 19.0593 18.3942 19.9617C18.3942 20.8787 18.4995 21.5483 18.7099 21.9704C18.9204 22.3853 19.2325 22.5927 19.6461 22.5927ZM10.9523 23.8481V22.4508H12.6941V18.0358L11.1374 18.9465V17.3526L13.184 16.1518H14.3923V22.4508H16.0253V23.8481H10.9523ZM24.0399 22.9311C24.5407 23.6225 25.2519 23.9682 26.1736 23.9682C27.1026 23.9682 27.8138 23.6225 28.3073 22.9311C28.8008 22.2324 29.0476 21.2463 29.0476 19.9727C29.0476 18.6917 28.8008 17.7165 28.3073 17.0469C27.8138 16.3701 27.1026 16.0317 26.1736 16.0317C25.2519 16.0317 24.5407 16.3701 24.0399 17.0469C23.5464 17.7165 23.2996 18.6954 23.2996 19.9836C23.2996 21.2499 23.5464 22.2324 24.0399 22.9311ZM27.1098 21.9704C26.9066 22.3853 26.5945 22.5927 26.1736 22.5927C25.7599 22.5927 25.4478 22.3853 25.2374 21.9704C25.0269 21.5483 24.9217 20.8787 24.9217 19.9617C24.9217 19.0593 25.0233 18.4079 25.2265 18.0076C25.437 17.6073 25.7527 17.4072 26.1736 17.4072C26.5945 17.4072 26.9066 17.6073 27.1098 18.0076C27.3203 18.4079 27.4255 19.0629 27.4255 19.9727C27.4255 20.8824 27.3203 21.5483 27.1098 21.9704Z" fill="#515765"/>
</svg>
