<svg width="41" height="40" viewBox="0 0 41 40" fill="none" xmlns="http://www.w3.org/2000/svg">
<g clip-path="url(#clip0_1001_6191)">
<path fill-rule="evenodd" clip-rule="evenodd" d="M38.8332 9.27342C38.8332 8.75418 38.3641 8.33325 37.7855 8.33325L3.21412 8.33326C2.63554 8.33326 2.1665 8.75419 2.1665 9.27343V13.8639C2.1665 14.2999 2.50413 14.6715 2.9597 14.8229C5.55488 15.6854 7.4046 17.9266 7.4046 20.5555C7.4046 23.1844 5.55488 25.4256 2.95971 26.2881C2.50413 26.4395 2.1665 26.811 2.1665 27.247V31.8375C2.1665 32.3568 2.63554 32.7777 3.21412 32.7777L37.7855 32.7777C38.3641 32.7777 38.8332 32.3568 38.8332 31.8375V27.247C38.8332 26.811 38.4955 26.4395 38.04 26.2881C35.4448 25.4256 33.5951 23.1844 33.5951 20.5555C33.5951 17.9266 35.4448 15.6853 38.04 14.8229C38.4955 14.6715 38.8332 14.2999 38.8332 13.8639V9.27342ZM19.5618 26.5629V28.3333H21.7293V26.5041C22.3976 26.4036 22.9926 26.2273 23.5144 25.975C24.1337 25.6755 24.6194 25.2851 24.9716 24.8038C25.3238 24.3119 25.4998 23.7504 25.4998 23.1193C25.4998 22.3172 25.2145 21.6648 24.6437 21.1621C24.0851 20.6595 23.229 20.3012 22.0754 20.0873L20.09 19.7022C19.4828 19.5846 19.0517 19.4349 18.7967 19.253C18.5539 19.0605 18.4324 18.8145 18.4324 18.5151C18.4324 18.1087 18.6328 17.7771 19.0335 17.5204C19.4464 17.2637 20.0171 17.1354 20.7457 17.1354C21.4379 17.1354 22.0815 17.2263 22.6765 17.4081C23.2715 17.5792 23.7937 17.8359 24.243 18.1782L25.0445 16.3493C24.6073 15.9643 24.0487 15.6701 23.3687 15.4669C22.8335 15.2986 22.2871 15.1833 21.7293 15.1209V13.3333H19.5618V15.1607C18.8872 15.2496 18.2861 15.4212 17.7585 15.6755C17.127 15.9857 16.6292 16.3921 16.2649 16.8947C15.9127 17.3974 15.7366 17.9696 15.7366 18.6113C15.7366 19.4455 16.0099 20.1247 16.5563 20.6488C17.1028 21.1621 17.9346 21.5258 19.0517 21.7397L21.0554 22.1247C21.6868 22.253 22.1301 22.4081 22.3851 22.5899C22.6401 22.7718 22.7676 23.007 22.7676 23.2958C22.7676 23.6381 22.5854 23.9322 22.2211 24.1782C21.8568 24.4135 21.2558 24.5311 20.4179 24.5311C19.6407 24.5311 18.9 24.4295 18.1956 24.2263C17.4913 24.0231 16.8599 23.745 16.3013 23.3921L15.4998 25.3493C16.0584 25.7236 16.7324 26.0177 17.5217 26.2316C18.1654 26.4061 18.8454 26.5165 19.5618 26.5629Z" fill="#515765"/>
</g>
<defs>
<clipPath id="clip0_1001_6191">
<rect width="36.6667" height="36.6667" fill="white" transform="translate(2.1665 1.66663)"/>
</clipPath>
</defs>
</svg>
