<svg width="136" height="78" viewBox="0 0 136 78" fill="none" xmlns="http://www.w3.org/2000/svg">
<path d="M31.8726 26.1843C30.533 24.6555 28.1116 24.0001 25.0139 24.0001H16.0235C15.7169 23.9999 15.4203 24.1093 15.187 24.3087C14.9538 24.508 14.7992 24.7841 14.7512 25.0874L11.0094 48.8613C10.992 48.9716 10.9988 49.0843 11.0291 49.1918C11.0595 49.2992 11.1127 49.3988 11.1852 49.4836C11.2577 49.5685 11.3477 49.6365 11.449 49.6832C11.5503 49.7299 11.6605 49.754 11.772 49.7539H17.3223L18.7163 40.9009L18.673 41.1781C18.7201 40.8755 18.8737 40.5996 19.1059 40.4003C19.3382 40.2009 19.6339 40.0912 19.9398 40.0908H22.5773C27.7587 40.0908 31.8157 37.9835 33.0009 31.8876C33.0361 31.7073 33.0665 31.5318 33.0929 31.3604C33.445 29.1073 33.0905 27.5737 31.8734 26.1851" fill="#003087"/>
<path d="M99.8204 37.4956C99.4811 39.7263 97.7799 39.7263 96.1346 39.7263H95.1984L95.8553 35.5614C95.8954 35.3098 96.1114 35.1247 96.3659 35.1247H96.7956C97.9159 35.1247 98.9738 35.1247 99.5195 35.7633C99.8452 36.1455 99.9436 36.7128 99.8204 37.4956ZM99.1042 31.6753H92.8978C92.6922 31.6754 92.4934 31.7489 92.3371 31.8825C92.1807 32.0162 92.0771 32.2012 92.0447 32.4045L89.5369 48.339C89.5253 48.4128 89.5299 48.4883 89.5502 48.5603C89.5705 48.6322 89.6062 48.6989 89.6547 48.7558C89.7032 48.8126 89.7634 48.8583 89.8312 48.8897C89.899 48.921 89.9727 48.9374 90.0474 48.9375H93.2322C93.5291 48.9375 93.782 48.7212 93.8284 48.4279L94.5406 43.9088C94.6062 43.4898 94.9679 43.1797 95.392 43.1797H97.3557C101.445 43.1797 103.804 41.1998 104.42 37.2729C104.698 35.5566 104.431 34.2073 103.629 33.2626C102.746 32.2242 101.182 31.6745 99.105 31.6745" fill="#FAFAFA"/>
<path d="M55.5527 37.4957C55.2134 39.7264 53.5122 39.7264 51.8661 39.7264H50.9299L51.5869 35.5615C51.6269 35.3099 51.8429 35.1248 52.0974 35.1248H52.5271C53.6474 35.1248 54.7053 35.1248 55.251 35.7634C55.5775 36.1456 55.676 36.7129 55.5527 37.4957ZM54.8365 31.6754H48.6301C48.206 31.6754 47.8443 31.9847 47.7778 32.4046L45.2692 48.3391C45.2575 48.413 45.2619 48.4885 45.2822 48.5605C45.3025 48.6325 45.3381 48.6993 45.3867 48.7562C45.4352 48.8131 45.4955 48.8587 45.5633 48.8901C45.6312 48.9214 45.705 48.9376 45.7797 48.9376H48.7437C49.1678 48.9376 49.5287 48.6283 49.5951 48.2085L50.2729 43.9098C50.3385 43.4899 50.7002 43.1806 51.1243 43.1806H53.0881C57.1772 43.1806 59.5362 41.1999 60.1524 37.273C60.43 35.5567 60.1635 34.2074 59.3609 33.2627C58.4783 32.2243 56.9139 31.6746 54.8373 31.6746M69.246 43.2167C68.9579 44.9169 67.6111 46.0587 65.8915 46.0587C65.0296 46.0587 64.3391 45.7807 63.8957 45.2551C63.4556 44.7342 63.2908 43.9915 63.43 43.1654C63.6973 41.4796 65.0673 40.3017 66.7605 40.3017C67.6047 40.3017 68.2889 40.5822 68.7418 41.1126C69.1972 41.647 69.3764 42.3938 69.246 43.2167ZM73.3879 37.4236H70.4159C70.2923 37.4235 70.1728 37.4676 70.0789 37.548C69.985 37.6283 69.9228 37.7397 69.9038 37.8619L69.7741 38.6936L69.5661 38.3923C68.9227 37.4573 67.4879 37.144 66.0555 37.144C62.7722 37.144 59.9675 39.6359 59.4218 43.1293C59.1377 44.8737 59.541 46.5395 60.5284 47.7021C61.4351 48.7701 62.729 49.2148 64.271 49.2148C66.9182 49.2148 68.3857 47.513 68.3857 47.513L68.2529 48.3399C68.2412 48.4138 68.2457 48.4895 68.266 48.5615C68.2864 48.6336 68.3221 48.7004 68.3707 48.7573C68.4193 48.8142 68.4796 48.8598 68.5476 48.8911C68.6155 48.9224 68.6895 48.9385 68.7642 48.9384H71.4402C71.8643 48.9384 72.226 48.6299 72.2924 48.2093L73.8992 38.023C73.9108 37.949 73.9062 37.8733 73.8858 37.8013C73.8653 37.7292 73.8295 37.6624 73.7809 37.6055C73.7322 37.5487 73.6718 37.503 73.6038 37.4718C73.5358 37.4405 73.4619 37.4243 73.3871 37.4244" fill="#FAFAFA"/>
<path d="M113.509 43.2167C113.22 44.9169 111.874 46.0587 110.154 46.0587C109.292 46.0587 108.602 45.7807 108.158 45.2551C107.718 44.7342 107.553 43.9915 107.693 43.1654C107.96 41.4796 109.329 40.3017 111.023 40.3017C111.867 40.3017 112.552 40.5822 113.004 41.1126C113.46 41.647 113.639 42.3938 113.509 43.2167ZM117.65 37.4236H114.678C114.555 37.4235 114.435 37.4676 114.341 37.548C114.248 37.6283 114.185 37.7397 114.166 37.8619L114.037 38.6936L113.829 38.3923C113.185 37.4573 111.75 37.144 110.318 37.144C107.036 37.144 104.231 39.6359 103.684 43.1293C103.4 44.8737 103.804 46.5395 104.792 47.7021C105.698 48.7701 106.992 49.2148 108.534 49.2148C111.182 49.2148 112.65 47.513 112.65 47.513L112.517 48.3399C112.505 48.4137 112.509 48.4893 112.53 48.5614C112.55 48.6335 112.585 48.7003 112.634 48.7572C112.682 48.8142 112.742 48.8599 112.81 48.8911C112.878 48.9224 112.952 48.9386 113.027 48.9384H115.702C116.126 48.9384 116.488 48.6299 116.555 48.2093L118.162 38.023C118.173 37.949 118.169 37.8733 118.148 37.8013C118.128 37.7292 118.092 37.6624 118.043 37.6055C117.995 37.5487 117.934 37.503 117.866 37.4718C117.798 37.4405 117.724 37.4243 117.65 37.4244" fill="#FAFAFA"/>
<path d="M89.2147 37.4233H86.2267C85.941 37.4233 85.6746 37.5651 85.5145 37.8023L81.3934 43.879L79.6465 38.0394C79.5932 37.8613 79.4841 37.7051 79.3352 37.594C79.1863 37.4829 79.0056 37.4228 78.8199 37.4225H75.8839C75.8016 37.4225 75.7205 37.4422 75.6473 37.4799C75.5741 37.5177 75.5109 37.5723 75.463 37.6394C75.4151 37.7064 75.3839 37.784 75.372 37.8655C75.36 37.9471 75.3676 38.0303 75.3942 38.1084L78.6831 47.7763L75.5895 52.1471C75.5348 52.2247 75.5025 52.3158 75.496 52.4105C75.4895 52.5052 75.5091 52.5999 75.5527 52.6843C75.5963 52.7686 75.6622 52.8393 75.7432 52.8887C75.8242 52.9381 75.9171 52.9643 76.012 52.9644H78.9968C79.2784 52.9644 79.5433 52.8257 79.705 52.5934L89.6388 38.2366C89.6927 38.1589 89.7244 38.068 89.7304 37.9737C89.7364 37.8793 89.7164 37.7851 89.6727 37.7013C89.629 37.6175 89.5632 37.5473 89.4825 37.4983C89.4017 37.4493 89.3091 37.4233 89.2147 37.4233Z" fill="#FAFAFA"/>
<path d="M121.156 32.1128L118.608 48.339C118.596 48.4129 118.601 48.4885 118.621 48.5605C118.641 48.6325 118.677 48.6992 118.726 48.7561C118.774 48.8129 118.835 48.8586 118.903 48.8899C118.97 48.9212 119.044 48.9375 119.119 48.9375H121.68C122.105 48.9375 122.466 48.6282 122.533 48.2084L125.045 32.2731C125.056 32.1991 125.052 32.1235 125.031 32.0514C125.011 31.9794 124.975 31.9126 124.927 31.8557C124.878 31.7988 124.818 31.7531 124.75 31.7218C124.682 31.6906 124.608 31.6744 124.533 31.6745H121.667C121.543 31.6742 121.424 31.7182 121.33 31.7984C121.236 31.8787 121.174 31.9907 121.156 32.1128Z" fill="#FAFAFA"/>
<path d="M31.8726 26.1843C30.533 24.6555 28.1116 24.0001 25.0139 24.0001H16.0235C15.7169 23.9999 15.4203 24.1093 15.187 24.3087C14.9538 24.508 14.7992 24.7841 14.7512 25.0874L11.0094 48.8613C10.992 48.9716 10.9988 49.0843 11.0291 49.1918C11.0595 49.2992 11.1127 49.3988 11.1852 49.4836C11.2577 49.5685 11.3477 49.6365 11.449 49.6832C11.5503 49.7299 11.6605 49.754 11.772 49.7539H17.3223L18.7163 40.9009L18.673 41.1781C18.7201 40.8755 18.8737 40.5996 19.1059 40.4003C19.3382 40.2009 19.6339 40.0912 19.9398 40.0908H22.5773C27.7587 40.0908 31.8157 37.9835 33.0009 31.8876C33.0361 31.7073 33.0665 31.5318 33.0929 31.3604C33.445 29.1073 33.0905 27.5737 31.8734 26.1851" fill="#FAFAFA"/>
<path fill-rule="evenodd" clip-rule="evenodd" d="M34.0909 33.356C34.0634 33.5323 34.0327 33.7081 33.9989 33.8833C32.8137 39.9784 28.7567 42.0865 23.5753 42.0865H20.937C20.6311 42.0867 20.3354 42.1964 20.1033 42.3958C19.8711 42.5952 19.7178 42.8711 19.671 43.1738L18.3203 51.7488L17.9362 54.1814C17.9209 54.2779 17.9267 54.3767 17.9532 54.4708C17.9798 54.5649 18.0263 54.6521 18.0898 54.7264C18.1532 54.8008 18.232 54.8605 18.3207 54.9014C18.4094 54.9423 18.5059 54.9634 18.6035 54.9634H23.2824C23.8361 54.9634 24.3067 54.5595 24.3939 54.0123L24.4395 53.7735L25.3213 48.1776L25.3774 47.8683C25.4193 47.6031 25.5543 47.3616 25.7583 47.1873C25.9622 47.0129 26.2215 46.9172 26.4897 46.9172H27.1898C31.7222 46.9172 35.2712 45.0743 36.3083 39.7412C36.7404 37.5137 36.5163 35.6524 35.372 34.3456C35.0087 33.9404 34.5745 33.6051 34.0909 33.356Z" fill="#FAFAFA"/>
</svg>
