<svg width="136" height="78" viewBox="0 0 136 78" fill="none" xmlns="http://www.w3.org/2000/svg">
<path d="M35.7559 23C32.5159 23 28.7358 28.1301 26.4857 30.3802C27.7458 30.3802 29.0958 30.7402 29.8158 31.1902C30.3918 31.5502 33.4459 34.7003 34.9459 36.2303C35.1259 36.4403 35.6659 36.8603 36.026 36.8603C36.386 36.8603 36.896 36.4403 37.106 36.2303C38.576 34.5203 41.7501 31.0282 42.6861 30.7402C43.6221 30.4522 44.7562 30.3802 45.2062 30.3802C42.6861 27.9501 38.996 23 35.7559 23Z" fill="#37B4AA"/>
<path d="M36.026 54.6807C32.9299 54.6807 28.8258 49.5506 26.4857 47.0306C27.2058 47.0306 28.1058 47.0306 29.1858 46.8506C30.0498 46.7066 33.1759 43.1905 34.7659 41.4504C34.9459 41.2104 35.6659 40.8204 36.026 40.8204C36.386 40.8204 36.896 41.2104 37.106 41.4504C38.696 43.1305 42.0921 46.5625 42.9561 46.8506C43.8201 47.1386 44.7562 47.1506 45.1162 47.1206C42.6861 49.6406 39.122 54.6807 36.026 54.6807Z" fill="#37B4AA"/>
<path d="M27.4758 31.8202H25.0457L20.9056 36.0503C20.6356 36.4703 20.0776 37.5983 20.0056 38.7504C19.9336 39.9024 20.5756 41.0304 20.9056 41.4504L25.0457 45.6805C26.1557 45.6805 28.2138 45.6445 28.6458 45.5005C29.0778 45.3565 29.6958 44.9005 29.8158 44.6905L34.2259 40.2804C34.4659 40.0104 35.1619 39.4704 36.026 39.4704C36.89 39.4704 37.586 40.0104 37.826 40.2804C39.446 41.8704 42.6501 45.0505 43.2261 45.4105C43.8021 45.7705 44.3961 45.6805 44.7562 45.6805H46.5562L50.6963 41.4504C51.0263 41.0304 51.6863 39.9024 51.6863 38.7504C51.6863 37.5983 51.0263 36.4703 50.6963 36.0503L46.5562 31.8202H44.4862C44.2461 31.8202 43.6041 31.8922 42.9561 32.1802C42.3081 32.4682 39.266 35.7203 37.826 37.3103C37.496 37.5803 36.674 38.1204 36.026 38.1204C35.3779 38.1204 34.5559 37.5803 34.2259 37.3103C32.6959 35.7503 29.4918 32.5402 28.9158 32.1802C28.3398 31.8202 27.7158 31.7902 27.4758 31.8202Z" fill="#37B4AA"/>
<path fill-rule="evenodd" clip-rule="evenodd" d="M68.0286 29.758C66.5275 29.744 65.1784 29.7451 64.6081 29.797C63.8011 29.8704 62.7224 30.2691 61.3065 31.6851C60.8224 32.1692 60.4727 32.8783 60.2488 33.6163C60.0257 34.352 59.9481 35.0483 59.9606 35.45L59.961 35.4599V55.0001C59.961 55.3481 59.6789 55.6302 59.3309 55.6302C58.983 55.6302 58.7009 55.3481 58.7009 55.0001V35.4791C58.685 34.9208 58.7878 34.0921 59.0431 33.2505C59.2992 32.4059 59.7295 31.4801 60.4155 30.7941C61.9819 29.2277 63.321 28.6488 64.494 28.5421C65.1427 28.4831 66.5687 28.4843 68.0404 28.498C68.6136 28.5033 69.1981 28.5107 69.7574 28.5177C70.6579 28.529 71.4932 28.5395 72.1112 28.5395C72.8889 28.5395 73.7824 28.8551 74.5637 29.2663C75.3547 29.6825 76.1185 30.2431 76.6322 30.821C76.6519 30.8432 76.6717 30.8655 76.6918 30.8881C77.3814 31.6627 78.3052 32.7004 78.4098 34.1648C78.4325 34.4829 78.4318 35.5829 78.4268 36.7791C78.4249 37.2197 78.4224 37.6788 78.4199 38.1271C78.4155 38.9182 78.4114 39.6759 78.4114 40.2398C78.4114 40.9791 78.2031 41.7856 77.8869 42.5154C77.5701 43.2465 77.1244 43.9478 76.6068 44.4654C76.0813 44.9908 75.4311 45.5224 74.7332 45.9264C74.0432 46.3259 73.2562 46.63 72.4712 46.63H63.381C63.0331 46.63 62.751 46.3479 62.751 45.9999C62.751 45.652 63.0331 45.3699 63.381 45.3699H72.4712C72.9463 45.3699 73.5093 45.179 74.1019 44.8359C74.6865 44.4975 75.2513 44.039 75.7158 43.5744C76.0983 43.192 76.4626 42.6332 76.7308 42.0144C76.9996 41.3941 77.1513 40.7606 77.1513 40.2398C77.1513 39.6727 77.1556 38.9083 77.1599 38.1141C77.1624 37.6668 77.1649 37.21 77.1667 36.7738C77.1719 35.541 77.1713 34.511 77.1529 34.2546C77.0806 33.2416 76.4357 32.4966 75.6904 31.6582C75.3016 31.2207 74.6704 30.7463 73.9769 30.3813C73.2739 30.0113 72.5935 29.7996 72.1112 29.7996C71.4866 29.7996 70.6358 29.7889 69.7276 29.7775C69.1699 29.7705 68.5905 29.7632 68.0286 29.758ZM78.6814 29.1695C78.6814 28.8216 78.9634 28.5395 79.3114 28.5395H82.1915C82.4469 28.5395 82.8093 28.5838 83.1675 28.6835C83.5133 28.7797 83.9446 28.9517 84.257 29.2641C84.5113 29.5184 84.7286 29.8858 84.8785 30.2106C85.0209 30.5191 85.1615 30.916 85.1615 31.2396V45.9999C85.1615 46.3479 84.8795 46.63 84.5315 46.63C84.1836 46.63 83.9015 46.3479 83.9015 45.9999L83.9015 31.2404C83.9015 31.2404 83.9008 31.2266 83.8957 31.1993C83.8901 31.1686 83.8805 31.1283 83.8658 31.0791C83.8364 30.9803 83.7916 30.8623 83.7345 30.7386C83.6144 30.4784 83.4717 30.2607 83.366 30.1551C83.2808 30.0698 83.0971 29.9718 82.8297 29.8974C82.5748 29.8265 82.326 29.7996 82.1915 29.7996H79.3114C78.9634 29.7996 78.6814 29.5175 78.6814 29.1695ZM88.4916 29.1695C88.4916 28.8216 88.7737 28.5395 89.1216 28.5395H92.2265L92.2708 28.5459C92.5022 28.5789 92.8689 28.6466 93.2394 28.7453C93.5906 28.8388 94.0228 28.9798 94.3312 29.1854C94.4307 29.2517 94.5796 29.3814 94.729 29.5154C94.894 29.6634 95.1049 29.8585 95.349 30.0875C95.8375 30.5462 96.4678 31.15 97.1466 31.8058C98.5046 33.118 100.063 34.645 101.084 35.6509L101.099 35.6656L101.113 35.6812C101.155 35.7286 101.291 35.8373 101.51 35.9352C101.721 36.0292 101.956 36.0889 102.172 36.0889C102.385 36.0889 102.6 36.0304 102.784 35.9424C102.977 35.8497 103.087 35.7491 103.115 35.7129L103.137 35.6837L109.52 29.2104L109.588 29.1693C109.772 29.0589 110.074 28.9065 110.421 28.7801C110.763 28.6556 111.194 28.5395 111.622 28.5395H114.772C115.12 28.5395 115.402 28.8216 115.402 29.1695C115.402 29.5175 115.12 29.7996 114.772 29.7996H111.622C111.402 29.7996 111.128 29.8635 110.852 29.9641C110.625 30.0468 110.427 30.1429 110.301 30.2128L104.083 36.5197C103.9 36.7401 103.626 36.9364 103.328 37.0788C103.007 37.2328 102.606 37.3489 102.172 37.3489C101.74 37.3489 101.329 37.2341 100.997 37.086C100.682 36.9455 100.385 36.7515 100.187 36.536C99.1677 35.5317 97.6195 34.0149 96.271 32.7119C95.5937 32.0575 94.9685 31.4586 94.4866 31.0062C94.2453 30.7797 94.0423 30.5921 93.8876 30.4534C93.8101 30.3839 93.7473 30.3289 93.6992 30.2884C93.6599 30.2552 93.6396 30.2396 93.6335 30.2348C93.6312 30.2331 93.6323 30.2338 93.6323 30.2338C93.5087 30.1514 93.2508 30.0523 92.915 29.9628C92.6214 29.8846 92.327 29.8287 92.1355 29.7996H89.1216C88.7737 29.7996 88.4916 29.5175 88.4916 29.1695ZM101.532 39.1718C101.328 39.2717 101.186 39.3976 101.134 39.4633L101.113 39.4888L101.091 39.5121C100.055 40.563 98.478 42.1532 97.1147 43.5082C96.4333 44.1855 95.8034 44.8058 95.3203 45.2712C95.0791 45.5036 94.8718 45.7 94.7117 45.8465C94.632 45.9195 94.5607 45.9831 94.5009 46.0338C94.4531 46.0745 94.3788 46.1364 94.3059 46.1802C94.1423 46.2783 93.9477 46.344 93.7795 46.3904C93.6017 46.4395 93.4079 46.4791 93.221 46.5108C92.8473 46.5743 92.4656 46.6124 92.2236 46.6286L92.2027 46.63H89.1216C88.7737 46.63 88.4916 46.3479 88.4916 45.9999C88.4916 45.652 88.7737 45.3699 89.1216 45.3699H92.1602C92.3694 45.3553 92.6965 45.3218 93.0099 45.2686C93.1718 45.2411 93.3211 45.2098 93.4443 45.1758C93.5558 45.145 93.619 45.1192 93.646 45.1059C93.6529 45.1004 93.6656 45.0901 93.6853 45.0734C93.7281 45.0371 93.7866 44.9851 93.861 44.917C94.0093 44.7813 94.2077 44.5935 94.446 44.3638C94.922 43.9052 95.5465 43.2903 96.2264 42.6145C97.5769 41.2722 99.1389 39.697 100.173 38.6478C100.362 38.4231 100.65 38.2012 100.976 38.041C101.32 37.8721 101.764 37.7429 102.241 37.7959C102.648 37.8411 103.025 37.9673 103.332 38.1164C103.622 38.2573 103.895 38.4415 104.075 38.6427C105.064 39.6763 106.573 41.2394 107.899 42.5803C108.563 43.2529 109.179 43.867 109.659 44.3295C109.899 44.5612 110.101 44.7513 110.257 44.8906C110.397 45.0166 110.469 45.0726 110.489 45.0883C110.494 45.0923 110.495 45.0929 110.495 45.0929C110.961 45.3591 111.517 45.3699 111.982 45.3699H114.772C115.12 45.3699 115.402 45.652 115.402 45.9999C115.402 46.3479 115.12 46.63 114.772 46.63L111.953 46.63C111.508 46.6302 110.646 46.6307 109.87 46.1869C109.737 46.1114 109.567 45.9646 109.416 45.8291C109.244 45.6748 109.029 45.4725 108.784 45.2364C108.294 44.7635 107.67 44.1411 107.002 43.466C105.667 42.115 104.148 40.5418 103.157 39.5053L103.147 39.4952L103.138 39.4846C103.108 39.4506 102.99 39.3515 102.781 39.2495C102.582 39.1527 102.344 39.075 102.102 39.0482C101.932 39.0292 101.731 39.0738 101.532 39.1718Z" fill="#FAFAFA"/>
<rect x="84.6215" y="23" width="3.05477" height="3.05477" rx="0.720017" transform="rotate(45 84.6215 23)" fill="#37B4AA"/>
<path fill-rule="evenodd" clip-rule="evenodd" d="M79.3172 52C79.3668 52 79.4069 52.0401 79.4069 52.0897V54.6897H78.1389C78.0177 54.6723 77.8429 54.6057 77.6972 54.465C77.5489 54.3218 77.4345 54.1043 77.4345 53.7931C77.4345 53.1719 77.8284 52.9343 78.0473 52.8978L78.0546 52.8966H79.2276V52.0897C79.2276 52.0401 79.2677 52 79.3172 52ZM79.2276 53.0759H78.07C77.9269 53.1034 77.6138 53.2751 77.6138 53.7931C77.6138 54.0557 77.7085 54.2267 77.8218 54.336C77.9349 54.4453 78.0702 54.4964 78.1584 54.5103H79.2276V53.0759ZM81.3793 52C81.4288 52 81.469 52.0401 81.469 52.0897V52.8966H82.5574L82.5695 52.9C82.7958 52.9647 83.2621 53.2325 83.2621 53.7931C83.2621 54.3451 82.8668 54.6171 82.6628 54.6851L82.649 54.6897H81.2897V52.0897C81.2897 52.0401 81.3298 52 81.3793 52ZM81.469 53.0759V54.5103H82.6192C82.7782 54.4513 83.0828 54.2329 83.0828 53.7931C83.0828 53.3583 82.7267 53.1362 82.5318 53.0759H81.469ZM69.46 52.677L70.1724 54.369L70.807 52.8618C70.8262 52.8161 70.8788 52.7947 70.9244 52.8139C70.9701 52.8331 70.9915 52.8857 70.9723 52.9313L70.1724 54.831L69.4504 53.1162L68.6435 54.8196L67.8484 52.9313C67.8292 52.8857 67.8506 52.8331 67.8962 52.8139C67.9419 52.7947 67.9944 52.8161 68.0137 52.8618L68.6531 54.3804L69.46 52.677ZM74.9224 52.879C74.9321 52.9275 74.9006 52.9748 74.8521 52.9845L74.0276 53.1494V54.6C74.0276 54.6495 73.9874 54.6897 73.9379 54.6897C73.8884 54.6897 73.8483 54.6495 73.8483 54.6V52.8966C73.8483 52.847 73.8884 52.8069 73.9379 52.8069C73.9874 52.8069 74.0276 52.847 74.0276 52.8966V52.9665L74.8169 52.8086C74.8655 52.7989 74.9127 52.8304 74.9224 52.879ZM85.4567 52.8178C85.5002 52.8416 85.5162 52.896 85.4925 52.9395L84.4175 54.9103C84.4157 54.9141 84.4133 54.9192 84.4104 54.9255C84.3952 54.9585 84.3655 55.0228 84.3249 55.0786C84.2754 55.1466 84.1923 55.2276 84.069 55.2276C84.0084 55.2276 83.9531 55.2311 83.8982 55.2345C83.8745 55.236 83.8509 55.2375 83.8269 55.2387C83.7514 55.2425 83.6726 55.2433 83.5989 55.2249C83.5509 55.2129 83.5217 55.1642 83.5337 55.1162C83.5457 55.0681 83.5944 55.0389 83.6424 55.051C83.6883 55.0624 83.744 55.0633 83.8179 55.0596C83.8376 55.0586 83.8588 55.0573 83.8811 55.0559C83.938 55.0523 84.0025 55.0483 84.069 55.0483C84.106 55.0483 84.1424 55.0247 84.1799 54.9731C84.2086 54.9336 84.2277 54.8926 84.2437 54.8584C84.2486 54.8479 84.2532 54.8379 84.2577 54.8289L84.2592 54.826L84.4223 54.527L83.4545 52.9433C83.4287 52.9011 83.442 52.8459 83.4843 52.8201C83.5265 52.7942 83.5817 52.8076 83.6075 52.8498L84.5214 54.3453L85.3351 52.8536C85.3588 52.8102 85.4133 52.7941 85.4567 52.8178ZM63 52.8069H64.075C64.1841 52.8069 64.4055 52.858 64.6003 53.0041C64.8002 53.154 64.9724 53.4038 64.9724 53.7931C64.9724 54.1128 64.8207 54.332 64.634 54.4722C64.4505 54.61 64.2326 54.6728 64.0858 54.6891L64.0759 54.6902L63.1793 54.6897V55.1379C63.1793 55.1874 63.1392 55.2276 63.0897 55.2276C63.0401 55.2276 63 55.1874 63 55.1379V52.8069ZM63.1793 54.5103H64.0707C64.1929 54.4959 64.3756 54.442 64.5263 54.3288C64.6759 54.2165 64.7931 54.0472 64.7931 53.7931C64.7931 53.4652 64.6515 53.2667 64.4928 53.1476C64.329 53.0247 64.1461 52.9862 64.0759 52.9862H63.1803L63.1793 54.5103ZM65.7633 53.2077C65.6633 53.3516 65.6 53.5572 65.6 53.7931C65.6 54.0287 65.6631 54.2091 65.7594 54.3285C65.8547 54.4467 65.9861 54.5103 66.1379 54.5103H66.8552C67.007 54.5103 67.1384 54.4467 67.2337 54.3285C67.33 54.2091 67.3931 54.0287 67.3931 53.7931C67.3931 53.5572 67.3298 53.3516 67.2298 53.2077C67.1302 53.0643 66.9983 52.9862 66.8552 52.9862H66.1379C65.9948 52.9862 65.8629 53.0643 65.7633 53.2077ZM65.616 53.1054C65.7406 52.9261 65.9225 52.8069 66.1379 52.8069H66.8552C67.0706 52.8069 67.2526 52.9261 67.3771 53.1054C67.5013 53.2842 67.5724 53.527 67.5724 53.7931C67.5724 54.0595 67.501 54.2827 67.3732 54.4411C67.2444 54.6009 67.0619 54.6897 66.8552 54.6897H66.1379C65.9312 54.6897 65.7487 54.6009 65.6199 54.4411C65.4921 54.2827 65.4207 54.0595 65.4207 53.7931C65.4207 53.527 65.4918 53.2842 65.616 53.1054ZM71.4759 53.1409C71.6352 52.9543 71.8837 52.8069 72.2345 52.8069C72.5852 52.8069 72.8395 52.9541 73.0125 53.1377C73.1834 53.319 73.2753 53.5359 73.3082 53.684L73.3325 53.7931H71.4316C71.4445 53.9394 71.4904 54.1009 71.589 54.2324C71.705 54.3871 71.9015 54.5103 72.2345 54.5103C72.499 54.5103 72.6935 54.4883 72.8307 54.4566C72.971 54.4242 73.0407 54.3842 73.0676 54.3573C73.1027 54.3223 73.1594 54.3223 73.1944 54.3573C73.2294 54.3923 73.2294 54.4491 73.1944 54.4841C73.1317 54.5468 73.0221 54.5965 72.871 54.6313C72.7168 54.6669 72.5079 54.6897 72.2345 54.6897C71.8503 54.6897 71.5984 54.5439 71.4455 54.34C71.2958 54.1404 71.2483 53.8953 71.2483 53.7034C71.2483 53.5463 71.3195 53.3242 71.4759 53.1409ZM71.437 53.6138H73.1003C73.0596 53.5046 72.9889 53.3741 72.882 53.2606C72.7382 53.108 72.5293 52.9862 72.2345 52.9862C71.9397 52.9862 71.7399 53.1078 71.6123 53.2573C71.5127 53.3741 71.4575 53.5075 71.437 53.6138ZM75.1518 53.1409C75.3111 52.9543 75.5596 52.8069 75.9103 52.8069C76.2611 52.8069 76.5154 52.9541 76.6884 53.1377C76.8592 53.319 76.9512 53.5359 76.9841 53.684L77.0083 53.7931H75.1074C75.1204 53.9394 75.1662 54.1009 75.2648 54.2324C75.3809 54.3871 75.5773 54.5103 75.9103 54.5103C76.1748 54.5103 76.3694 54.4883 76.5066 54.4566C76.6468 54.4242 76.7166 54.3842 76.7435 54.3573C76.7785 54.3223 76.8353 54.3223 76.8703 54.3573C76.9053 54.3923 76.9053 54.4491 76.8703 54.4841C76.8076 54.5468 76.698 54.5965 76.5469 54.6313C76.3927 54.6669 76.1838 54.6897 75.9103 54.6897C75.5261 54.6897 75.2743 54.5439 75.1214 54.34C74.9717 54.1404 74.9241 53.8953 74.9241 53.7034C74.9241 53.5463 74.9954 53.3242 75.1518 53.1409ZM75.1128 53.6138H76.7762C76.7354 53.5046 76.6648 53.3741 76.5578 53.2606C76.414 53.108 76.2051 52.9862 75.9103 52.9862C75.6156 52.9862 75.4158 53.1078 75.2882 53.2573C75.1885 53.3741 75.1334 53.5075 75.1128 53.6138Z" fill="#FAFAFA"/>
<path fill-rule="evenodd" clip-rule="evenodd" d="M115.403 52.231C115.527 52.231 115.628 52.3313 115.628 52.4551V54.7861C115.628 54.9099 115.527 55.0103 115.403 55.0103C115.28 55.0103 115.179 54.9099 115.179 54.7861V52.4551C115.179 52.3313 115.28 52.231 115.403 52.231ZM87.4758 52.4999H88.9551C89.1263 52.4999 89.2912 52.6008 89.4009 52.705C89.5123 52.8108 89.6276 52.9777 89.6276 53.1723C89.6276 53.3187 89.5745 53.4767 89.5154 53.5976C89.5256 53.6041 89.5356 53.6109 89.5456 53.618C89.6967 53.7268 89.8069 53.9062 89.8069 54.1585C89.8069 54.641 89.4375 54.9206 89.1345 54.9206H87.4758V52.4999ZM89.0632 53.4861C89.0751 53.4692 89.0892 53.4464 89.1038 53.4185C89.1514 53.3271 89.1793 53.2295 89.1793 53.1723C89.1793 53.1518 89.16 53.0945 89.0921 53.03C89.0619 53.0013 89.0294 52.9787 89.0006 52.9643C88.9724 52.9502 88.957 52.9484 88.9553 52.9482C88.9551 52.9482 88.9552 52.9482 88.9553 52.9482L87.9241 52.9482V53.4861H89.0632ZM87.9241 53.9344H89.1345C89.1733 53.9344 89.2366 53.9479 89.2837 53.9818C89.3193 54.0075 89.3586 54.0523 89.3586 54.1585C89.3586 54.3934 89.19 54.4723 89.1345 54.4723H87.9241V53.9344ZM102.3 52.4999H103.479C103.603 52.4999 103.703 52.6003 103.703 52.7241C103.703 52.8478 103.603 52.9482 103.479 52.9482H102.33C102.19 52.9724 101.821 53.146 101.821 53.7999C101.821 54.152 101.919 54.3043 102.001 54.3743C102.088 54.4496 102.204 54.4723 102.314 54.4723H103.479C103.603 54.4723 103.703 54.5727 103.703 54.6965C103.703 54.8203 103.603 54.9206 103.479 54.9206H102.314C102.155 54.9206 101.912 54.8896 101.708 54.7139C101.498 54.5328 101.372 54.2368 101.372 53.7999C101.372 52.8948 101.938 52.5452 102.286 52.5017L102.3 52.4999ZM109.665 52.4999C109.789 52.4999 109.89 52.6003 109.89 52.7241V53.1275H110.472C110.596 53.1275 110.697 53.2279 110.697 53.3516C110.697 53.4754 110.596 53.5758 110.472 53.5758H109.89V54.3379C109.89 54.3456 109.894 54.3781 109.913 54.4113C109.929 54.4395 109.956 54.4673 110.005 54.4838C110.16 54.5353 110.34 54.5042 110.402 54.4838C110.519 54.4447 110.646 54.5082 110.685 54.6256C110.724 54.743 110.661 54.87 110.543 54.9091C110.425 54.9485 110.14 55.0011 109.864 54.9091C109.525 54.7962 109.441 54.4853 109.441 54.3379V53.5758H109.128C109.004 53.5758 108.903 53.4754 108.903 53.3516C108.903 53.2279 109.004 53.1275 109.128 53.1275H109.441V52.7241C109.441 52.6003 109.542 52.4999 109.665 52.4999ZM94.1551 53.4189C94.0377 53.4189 93.9426 53.4395 93.8968 53.4625C93.759 53.5314 93.6391 53.5792 93.5353 53.6197C93.5266 53.6231 93.518 53.6265 93.5096 53.6297C93.4674 53.6462 93.429 53.6612 93.3931 53.6759V54.6965C93.3931 54.8203 93.2927 54.9206 93.1689 54.9206C93.0451 54.9206 92.9448 54.8203 92.9448 54.6965V53.262C92.9448 53.1382 93.0451 53.0379 93.1689 53.0379C93.2704 53.0379 93.3561 53.1052 93.3837 53.1977C93.4811 53.1595 93.582 53.1187 93.6963 53.0615C93.8298 52.9948 94.0036 52.9706 94.1551 52.9706C94.3067 52.9706 94.4805 52.9948 94.614 53.0615C94.7299 53.1195 94.823 53.2177 94.8848 53.3049C94.9171 53.3503 94.9454 53.399 94.9664 53.4475C94.9856 53.4915 95.0069 53.5535 95.0069 53.6206V54.6965C95.0069 54.8203 94.9065 54.9206 94.7827 54.9206C94.6589 54.9206 94.5586 54.8203 94.5586 54.6965V53.6343C94.5578 53.6322 94.5568 53.6295 94.5553 53.6262C94.5484 53.6102 94.5363 53.5884 94.5193 53.5643C94.4825 53.5125 94.441 53.4762 94.4135 53.4625C94.3677 53.4395 94.2725 53.4189 94.1551 53.4189ZM107.872 53.4189C107.755 53.4189 107.66 53.4395 107.614 53.4625C107.476 53.5314 107.356 53.5792 107.253 53.6197C107.244 53.6231 107.235 53.6265 107.227 53.6297C107.185 53.6462 107.146 53.6612 107.11 53.6759V54.6965C107.11 54.8203 107.01 54.9206 106.886 54.9206C106.762 54.9206 106.662 54.8203 106.662 54.6965V53.262C106.662 53.1382 106.762 53.0379 106.886 53.0379C106.988 53.0379 107.073 53.1052 107.101 53.1977C107.198 53.1595 107.299 53.1187 107.414 53.0615C107.547 52.9948 107.721 52.9706 107.872 52.9706C108.024 52.9706 108.198 52.9948 108.331 53.0615C108.447 53.1195 108.54 53.2177 108.602 53.3049C108.634 53.3503 108.663 53.399 108.684 53.4475C108.703 53.4915 108.724 53.5535 108.724 53.6206V54.6965C108.724 54.8203 108.624 54.9206 108.5 54.9206C108.376 54.9206 108.276 54.8203 108.276 54.6965V53.6343C108.275 53.6322 108.274 53.6295 108.273 53.6262C108.266 53.6102 108.254 53.5884 108.236 53.5643C108.2 53.5125 108.158 53.4762 108.131 53.4625C108.085 53.4395 107.99 53.4189 107.872 53.4189ZM112.392 53.203C112.425 53.3224 112.354 53.4457 112.235 53.4782L111.414 53.7022V54.7861C111.414 54.9099 111.313 55.0103 111.19 55.0103C111.066 55.0103 110.965 54.9099 110.965 54.7861V53.262C110.965 53.1382 111.066 53.0379 111.19 53.0379C111.305 53.0379 111.4 53.1254 111.412 53.2379L112.117 53.0458C112.236 53.0132 112.359 53.0836 112.392 53.203ZM90.4345 53.262C90.4345 53.1382 90.5348 53.0379 90.6586 53.0379H91.7345C91.8582 53.0379 91.9589 53.1064 92.0115 53.1465C92.0707 53.1916 92.1245 53.2454 92.1588 53.2797L92.1619 53.2828C92.2382 53.3591 92.274 53.4555 92.2918 53.5229C92.3106 53.5939 92.3172 53.6626 92.3172 53.7103V54.9206H90.8379C90.7691 54.9206 90.7015 54.8971 90.653 54.8755C90.5983 54.8512 90.5397 54.8167 90.485 54.7729C90.3816 54.6902 90.2551 54.5429 90.2551 54.3379C90.2551 54.172 90.3222 54.0122 90.4154 53.8941C90.5052 53.7805 90.6528 53.6654 90.8379 53.6654H91.8645C91.8629 53.6566 91.861 53.6471 91.8585 53.6376C91.8546 53.623 91.8504 53.6118 91.8466 53.6042C91.845 53.6009 91.8438 53.599 91.8432 53.5981C91.8062 53.5611 91.7724 53.5279 91.7398 53.503C91.729 53.4948 91.7208 53.4894 91.7151 53.4861H90.6586C90.5348 53.4861 90.4345 53.3858 90.4345 53.262ZM91.8689 54.1137H90.8379C90.8389 54.1137 90.8391 54.1133 90.8379 54.1137C90.8324 54.1155 90.8041 54.1252 90.7673 54.1719C90.726 54.2242 90.7034 54.2885 90.7034 54.3379C90.7034 54.348 90.7115 54.38 90.765 54.4228C90.7887 54.4418 90.8142 54.4566 90.8351 54.4659C90.8421 54.469 90.8476 54.4711 90.8514 54.4723H91.8689V54.1137ZM95.7088 53.3202C95.8449 53.157 96.0366 53.0379 96.2172 53.0379H97.0241C97.1479 53.0379 97.2482 53.1382 97.2482 53.262C97.2482 53.3858 97.1479 53.4861 97.0241 53.4861H96.2172C96.2173 53.4861 96.2177 53.486 96.2172 53.4861C96.2097 53.4881 96.1359 53.5079 96.0532 53.6072C95.9749 53.7012 95.9034 53.8521 95.9034 54.0689C95.9034 54.2266 95.9639 54.3238 96.0309 54.3842C96.1063 54.452 96.1886 54.4723 96.2172 54.4723H97.0241C97.1479 54.4723 97.2482 54.5727 97.2482 54.6965C97.2482 54.8203 97.1479 54.9206 97.0241 54.9206H96.2172C96.0665 54.9206 95.8799 54.8513 95.7311 54.7174C95.574 54.576 95.4551 54.3595 95.4551 54.0689C95.4551 53.7478 95.563 53.4952 95.7088 53.3202ZM98.0417 53.5911C97.9549 53.6634 97.8758 53.7812 97.8758 53.9792C97.8758 54.1773 97.9549 54.295 98.0417 54.3674C98.1388 54.4482 98.2456 54.4723 98.2793 54.4723H98.9965C99.0403 54.4723 99.1466 54.4508 99.2375 54.378C99.3179 54.3137 99.4 54.1992 99.4 53.9792C99.4 53.7592 99.3179 53.6448 99.2375 53.5805C99.1466 53.5077 99.0403 53.4861 98.9965 53.4861H98.2793C98.2456 53.4861 98.1388 53.5102 98.0417 53.5911ZM97.7548 53.2467C97.9267 53.1034 98.1336 53.0379 98.2793 53.0379H98.9965C99.132 53.0379 99.3396 53.088 99.5176 53.2304C99.7062 53.3813 99.8482 53.6254 99.8482 53.9792C99.8482 54.333 99.7062 54.5772 99.5176 54.728C99.3396 54.8705 99.132 54.9206 98.9965 54.9206H98.2793C98.1336 54.9206 97.9267 54.855 97.7548 54.7118C97.5726 54.56 97.4276 54.3191 97.4276 53.9792C97.4276 53.6394 97.5726 53.3985 97.7548 53.2467ZM104.158 53.4712C104.326 53.2267 104.621 53.0379 105.093 53.0379C105.478 53.0379 105.746 53.1841 105.913 53.3899C106.072 53.5862 106.124 53.818 106.124 53.9792V54.2034H104.463C104.486 54.258 104.517 54.3176 104.553 54.3735C104.596 54.4403 104.641 54.4938 104.682 54.528C104.717 54.558 104.735 54.5616 104.736 54.562H105.488C105.56 54.5256 105.62 54.4944 105.664 54.4652C105.673 54.4589 105.68 54.4535 105.686 54.4489C105.715 54.3585 105.8 54.293 105.9 54.293C106.024 54.293 106.124 54.3934 106.124 54.5172C106.124 54.6164 106.075 54.6897 106.038 54.732C105.999 54.7758 105.953 54.8109 105.912 54.8381C105.833 54.8908 105.733 54.9409 105.649 54.9829L105.594 55.0103H104.734C104.593 55.0103 104.475 54.9406 104.392 54.8705C104.307 54.7983 104.234 54.7061 104.176 54.616C104.117 54.5248 104.069 54.4273 104.034 54.3378C104.002 54.2549 103.972 54.1562 103.972 54.0689C103.972 53.953 103.999 53.7011 104.158 53.4712ZM104.508 53.7551H105.618C105.604 53.7266 105.586 53.6985 105.564 53.672C105.489 53.579 105.353 53.4861 105.093 53.4861C104.758 53.4861 104.605 53.6111 104.527 53.7252C104.52 53.735 104.514 53.745 104.508 53.7551ZM112.669 53.262C112.669 53.1382 112.769 53.0379 112.893 53.0379H113.969C114.093 53.0379 114.193 53.1064 114.246 53.1465C114.305 53.1916 114.359 53.2454 114.393 53.2797L114.396 53.2828C114.473 53.3591 114.508 53.4555 114.526 53.5229C114.545 53.5939 114.552 53.6626 114.552 53.7103V54.9206H113.072C113.004 54.9206 112.936 54.8971 112.887 54.8755C112.833 54.8512 112.774 54.8167 112.719 54.7729C112.616 54.6902 112.49 54.5429 112.49 54.3379C112.49 54.172 112.557 54.0122 112.65 53.8941C112.74 53.7805 112.887 53.6654 113.072 53.6654H114.099C114.097 53.6566 114.095 53.6471 114.093 53.6376C114.089 53.623 114.085 53.6118 114.081 53.6042C114.079 53.6009 114.078 53.599 114.078 53.5981C114.041 53.5611 114.007 53.5279 113.974 53.503C113.963 53.4948 113.955 53.4894 113.95 53.4861H112.893C112.769 53.4861 112.669 53.3858 112.669 53.262ZM114.103 54.1137H113.072C113.073 54.1137 113.074 54.1133 113.072 54.1137C113.067 54.1155 113.039 54.1252 113.002 54.1719C112.96 54.2242 112.938 54.2885 112.938 54.3379C112.938 54.348 112.946 54.38 112.999 54.4228C113.023 54.4418 113.049 54.4566 113.07 54.4659C113.077 54.469 113.082 54.4711 113.086 54.4723H114.103V54.1137Z" fill="#FAFAFA"/>
</svg>
