<svg width="22" height="22" viewBox="0 0 22 22" fill="none" xmlns="http://www.w3.org/2000/svg">
  <path fill-rule="evenodd" clip-rule="evenodd" d="M11.0002 1.8335C5.93755 1.8335 1.8335 5.93755 1.8335 11.0002C1.8335 16.0628 5.93755 20.1668 11.0002 20.1668C16.0628 20.1668 20.1668 16.0628 20.1668 11.0002C20.1668 8.56901 19.2011 6.23743 17.482 4.51835C15.7629 2.79927 13.4313 1.8335 11.0002 1.8335ZM11.9168 16.0418C11.9168 16.295 11.7116 16.5002 11.4585 16.5002H10.5418C10.2887 16.5002 10.0835 16.295 10.0835 16.0418V15.1252C10.0835 14.872 10.2887 14.6668 10.5418 14.6668H11.4585C11.7116 14.6668 11.9168 14.872 11.9168 15.1252V16.0418ZM12.7235 11.266C13.8102 10.9143 14.5491 9.90566 14.5568 8.7635V8.25016C14.5568 7.54999 14.2787 6.8785 13.7836 6.3834C13.2885 5.8883 12.617 5.61016 11.9168 5.61016H10.0835C8.62546 5.61016 7.4435 6.79213 7.4435 8.25016V8.7085C7.4435 8.96163 7.6487 9.16683 7.90183 9.16683H8.5985C8.85163 9.16683 9.05683 8.96163 9.05683 8.7085V8.25016C9.05683 7.68315 9.51648 7.2235 10.0835 7.2235H11.9168C12.1954 7.21354 12.4661 7.3173 12.6666 7.51092C12.8672 7.70455 12.9803 7.9714 12.9802 8.25016V8.7635C12.9811 9.20561 12.7012 9.59957 12.2835 9.74433L11.4127 10.0285C10.7084 10.2613 10.2321 10.9185 10.2302 11.6602V12.3752C10.2302 12.6283 10.4354 12.8335 10.6885 12.8335H11.3852C11.6383 12.8335 11.8435 12.6283 11.8435 12.3752V11.6602C11.8435 11.6121 11.8724 11.5687 11.9168 11.5502L12.7235 11.266Z" fill="#78818F"/>
</svg>
