<svg width="24" height="24" viewBox="0 0 24 24" fill="none" xmlns="http://www.w3.org/2000/svg">
<path d="M21.9997 12.0194C21.9843 11.5968 21.8469 11.1876 21.6042 10.8413C21.3615 10.495 21.0237 10.2263 20.6317 10.0676C20.2397 9.90889 19.8102 9.86696 19.3949 9.94687C18.9796 10.0268 18.5963 10.2251 18.2912 10.518C16.5832 9.35692 14.5755 8.71549 12.5107 8.6712L13.4866 3.98674L16.6997 4.66238C16.7379 5.01744 16.9014 5.34727 17.1608 5.59264C17.4203 5.83802 17.7587 5.98289 18.1154 6.00123C18.472 6.01958 18.8235 5.91021 19.1068 5.69276C19.39 5.47531 19.5865 5.164 19.661 4.81474C19.7354 4.46547 19.6829 4.10111 19.5129 3.78706C19.3429 3.47301 19.0665 3.22983 18.7334 3.10118C18.4003 2.97253 18.0322 2.96682 17.6952 3.0851C17.3583 3.20337 17.0745 3.43787 16.8949 3.74651L13.2164 3.01081C13.1562 2.99761 13.094 2.99649 13.0334 3.0075C12.9728 3.01851 12.915 3.04144 12.8634 3.07495C12.8117 3.10847 12.7672 3.15191 12.7324 3.20276C12.6977 3.2536 12.6733 3.31084 12.6609 3.37115L11.5498 8.58111C9.45963 8.61262 7.42428 9.25454 5.69423 10.4279C5.46277 10.2101 5.18672 10.0452 4.88522 9.94475C4.58372 9.84426 4.26398 9.81053 3.94815 9.8459C3.63231 9.88126 3.32795 9.98488 3.05614 10.1496C2.78434 10.3143 2.55159 10.5361 2.37403 10.7997C2.19647 11.0632 2.07835 11.3623 2.02785 11.676C1.97735 11.9898 1.99568 12.3108 2.08157 12.6168C2.16746 12.9228 2.31885 13.2064 2.52525 13.4481C2.73166 13.6897 2.98814 13.8836 3.27693 14.0163C3.26002 14.2362 3.26002 14.457 3.27693 14.6769C3.27693 18.0401 7.19565 20.7727 12.0303 20.7727C16.8649 20.7727 20.7836 18.0401 20.7836 14.6769C20.8005 14.457 20.8005 14.2362 20.7836 14.0163C21.1541 13.8321 21.4649 13.5469 21.6801 13.1935C21.8953 12.8401 22.0061 12.4331 21.9997 12.0194ZM6.98545 13.5208C6.98545 13.1226 7.14364 12.7407 7.42521 12.4591C7.70679 12.1776 8.08868 12.0194 8.48688 12.0194C8.88509 12.0194 9.26698 12.1776 9.54855 12.4591C9.83012 12.7407 9.98831 13.1226 9.98831 13.5208C9.98831 13.919 9.83012 14.3009 9.54855 14.5825C9.26698 14.8641 8.88509 15.0222 8.48688 15.0222C8.08868 15.0222 7.70679 14.8641 7.42521 14.5825C7.14364 14.3009 6.98545 13.919 6.98545 13.5208ZM15.7088 17.6497C14.6435 18.4525 13.3329 18.8611 12.0002 18.8058C10.6675 18.8611 9.35693 18.4525 8.2917 17.6497C8.22785 17.5719 8.19522 17.4732 8.20016 17.3727C8.2051 17.2722 8.24725 17.1771 8.31841 17.1059C8.38957 17.0347 8.48465 16.9926 8.58517 16.9877C8.68569 16.9827 8.78445 17.0153 8.86224 17.0792C9.76494 17.7413 10.8668 18.0751 11.9852 18.0251C13.105 18.086 14.212 17.7629 15.1232 17.1092C15.1616 17.0662 15.2084 17.0316 15.2608 17.0074C15.3132 16.9833 15.3699 16.9702 15.4276 16.9689C15.4852 16.9676 15.5425 16.9783 15.5959 17.0001C15.6492 17.0219 15.6975 17.0544 15.7378 17.0957C15.778 17.137 15.8094 17.1861 15.8298 17.24C15.8503 17.2939 15.8594 17.3515 15.8567 17.4091C15.854 17.4667 15.8395 17.5231 15.814 17.5748C15.7885 17.6266 15.7527 17.6725 15.7088 17.7098V17.6497ZM15.4385 15.0823C15.1415 15.0823 14.8513 14.9942 14.6043 14.8293C14.3574 14.6643 14.165 14.4298 14.0514 14.1554C13.9377 13.8811 13.908 13.5792 13.9659 13.288C14.0239 12.9967 14.1668 12.7292 14.3768 12.5192C14.5868 12.3092 14.8543 12.1662 15.1456 12.1083C15.4368 12.0504 15.7387 12.0801 16.0131 12.1937C16.2874 12.3074 16.5219 12.4998 16.6869 12.7467C16.8519 12.9936 16.9399 13.2839 16.9399 13.5809C16.9481 13.7843 16.9148 13.9873 16.842 14.1774C16.7693 14.3676 16.6586 14.541 16.5168 14.687C16.3749 14.8331 16.2049 14.9488 16.0169 15.027C15.829 15.1053 15.6271 15.1446 15.4235 15.1424L15.4385 15.0823Z" fill="white"/>
</svg>
