<svg width="18" height="18" viewBox="0 0 18 18" fill="none" xmlns="http://www.w3.org/2000/svg">
<g clip-path="url(#clip0_819_21543)">
<path fill-rule="evenodd" clip-rule="evenodd" d="M2.75 0.75C1.64543 0.75 0.75 1.64543 0.75 2.75V15.25C0.75 16.3546 1.64543 17.25 2.75 17.25H15.25C16.3546 17.25 17.25 16.3546 17.25 15.25V2.75C17.25 1.64543 16.3546 0.75 15.25 0.75H2.75ZM2.8125 7.839V10.989C4.38144 10.4561 5.90625 9.93901 5.90625 9.93901V8.88901C4.65871 8.86936 2.8125 7.839 2.8125 7.839ZM6.9375 7.839H7.96875V9.93901H6.9375V7.839ZM10.0312 9.93805L9 8.88805H10.0312V9.93805ZM10.0312 6.78845V7.83845H7.96875V6.78845H10.0312ZM9 10.9886L10.0312 9.9386L11.0625 10.9886L10.0312 12.0386L9 10.9886ZM7.96875 3.63831H11.0625C11.0625 3.63831 10.0505 5.55025 10.0312 6.78831H9C9 6.78831 8.49209 5.19532 7.96875 3.63831ZM13.125 15.1876L15.1875 13.0876C13.6727 12.3969 12.0938 10.9876 12.0938 10.9876L11.0625 12.0376C11.9268 12.9299 13.125 15.1876 13.125 15.1876Z" fill="#FF6E48"/>
</g>
<defs>
<clipPath id="clip0_819_21543">
<rect width="18" height="18" fill="white"/>
</clipPath>
</defs>
</svg>
