<svg width="136" height="78" viewBox="0 0 136 78" fill="none" xmlns="http://www.w3.org/2000/svg">
<path d="M42.0866 34.6555H35.5919C35.5919 33.6695 35.4664 33.0077 35.217 32.6708C34.8307 32.1725 33.7647 31.923 32.0185 31.923C30.3232 31.923 29.1994 32.066 28.6511 32.3535C28.1028 32.642 27.8282 33.2691 27.8282 34.2341C27.8282 35.1076 28.0712 35.6835 28.5582 35.9591C28.9075 36.1548 29.3684 36.27 29.9428 36.3043L31.2524 36.3897C34.0596 36.5616 35.8122 36.6836 36.5112 36.7527C38.7311 36.9597 40.3404 37.5055 41.3388 38.3909C42.1242 39.0816 42.5929 39.9844 42.7421 41.0983C42.8301 41.7657 42.873 42.5199 42.873 43.3582C42.873 45.2908 42.674 46.7056 42.2753 47.6019C41.5526 49.2475 39.928 50.2869 37.4008 50.7235C36.3417 50.9077 34.722 51 32.5431 51C28.906 51 26.3719 50.7998 24.9409 50.3971C23.1848 49.9039 22.0265 48.9047 21.4663 47.4003C21.1541 46.5625 21 45.1674 21 43.2142H27.4937L27.4942 43.7138C27.4942 44.756 27.8178 45.4257 28.4644 45.7242C28.9119 45.9299 29.4523 46.0382 30.0876 46.051H32.4754C33.6936 46.051 34.4711 45.9934 34.8065 45.8773C35.4037 45.6602 35.7954 45.3105 35.9826 44.8269C36.0819 44.5284 36.1313 44.1435 36.1313 43.6713C36.1313 42.615 35.7149 41.9723 34.8826 41.7415C34.5704 41.6505 33.123 41.523 30.5386 41.3625C28.4629 41.2254 27.021 41.0933 26.2139 40.9653C24.0878 40.5973 22.6706 39.8404 21.9637 38.6912C21.3418 37.7153 21.0316 36.2384 21.0316 34.2619C21.0316 32.7576 21.1996 31.5509 21.5355 30.6435C21.8714 29.7357 22.4128 29.0464 23.1596 28.5752C24.2553 27.8511 25.6557 27.4269 27.3604 27.2999C28.78 27.1851 30.3533 27.1266 32.0847 27.1266C34.8099 27.1266 36.7527 27.272 37.9106 27.5595C40.7366 28.2621 42.1494 30.2299 42.1494 33.4638C42.1494 33.729 42.1281 34.1257 42.0861 34.656M70.6431 51V27H83.6483C85.4321 27 86.793 27.1344 87.7285 27.4041C89.8674 28.0239 91.3024 29.2942 92.0375 31.2126C92.4168 32.2201 92.607 33.7367 92.607 35.7617C92.607 38.1962 92.3966 39.9451 91.9797 41.0105C91.1453 43.1169 89.4288 44.3305 86.8359 44.6445C86.5312 44.692 85.234 44.7336 82.9435 44.7679L81.7851 44.8036H77.6234V51H70.6431ZM77.6239 39.2365H81.9758C83.3554 39.1908 84.1947 39.0926 84.4965 38.939C84.909 38.7292 85.1861 38.3086 85.3239 37.6783C85.4123 37.2591 85.4563 36.6352 85.4563 35.8065C85.4563 34.7913 85.3684 34.0389 85.1925 33.5475C84.9416 32.8586 84.3404 32.4399 83.388 32.2873C83.1993 32.2644 82.7483 32.2521 82.034 32.2521H77.6244L77.6239 39.2365ZM107.507 46.8523H98.174L96.9199 51H89.698L97.4914 27H108.021L115.909 51H108.839L107.507 46.8523ZM106.121 42.1771L102.85 31.7735L99.6762 42.1771H106.121Z" fill="#FAFAFA"/>
<path d="M61.0086 30.376C63.8875 30.376 66.4571 31.6033 68.146 33.5254L69.6506 30.5401C67.2974 28.4813 64.0949 27.2119 60.5621 27.2119C55.0617 27.2119 50.3566 30.2864 48.4262 34.6379H45.492L43.7592 38.0749H47.5336C47.5036 38.3952 47.488 38.7165 47.4867 39.038C47.4867 39.4316 47.5089 39.8215 47.5509 40.2059H45.654L43.9222 43.6437H48.5161C50.5019 47.8851 55.1481 50.8627 60.5621 50.8627C63.2908 50.8627 65.8229 50.1062 67.9188 48.8135V44.6004C66.2304 46.379 63.7615 47.503 61.0086 47.503C57.7909 47.503 54.9604 45.9676 53.3126 43.6437H62.9316L64.664 40.2059H51.8978C51.7849 39.5002 51.7667 38.7843 51.8435 38.0744H65.7384L67.4702 34.6379H53.0438C54.6394 32.0901 57.6081 30.376 61.0086 30.376Z" fill="#F5C142"/>
<path d="M61.0084 30.4787C63.7519 30.4787 66.3216 31.6132 68.0594 33.5906L68.1715 33.7186L68.2476 33.5691L69.7517 30.5838L69.7853 30.5157L69.7275 30.4645C67.2542 28.3011 63.9989 27.1099 60.5619 27.1099C57.8781 27.1099 55.2962 27.8353 53.093 29.2084C50.9428 30.5491 49.2929 32.4131 48.3233 34.599L48.426 34.535H45.4202L45.3906 34.5944L43.6582 38.0318L43.5841 38.1785H47.5334L47.4223 38.0665C47.3923 38.3897 47.3767 38.7139 47.3753 39.0383C47.3753 39.4241 47.3971 39.8213 47.4395 40.2167L47.5507 40.1034H45.5837L45.5541 40.1628L43.8207 43.6002L43.7471 43.7469H48.5159L48.4137 43.6847C50.4844 48.1076 55.2532 50.9659 60.5619 50.9659C63.2234 50.9659 65.7881 50.2523 67.9803 48.9002L68.0292 48.8701V44.327L67.8346 44.5327C66.9825 45.4322 65.9329 46.1532 64.7558 46.6476C63.5787 47.142 62.3011 47.3983 61.0084 47.3996C57.9399 47.3996 55.0976 45.9734 53.4052 43.5874L53.3124 43.7474H63.0031L63.0327 43.6879L64.7651 40.2496L64.8392 40.1034H51.8971L52.0078 40.1916C51.8962 39.4944 51.8781 38.7871 51.9539 38.0857L51.8428 38.1785H65.8093L65.839 38.1191L67.5708 34.6817L67.6454 34.535H53.0436L53.14 34.6899C54.7666 32.0922 57.7818 30.4787 61.0084 30.4787ZM53.0436 34.7411H67.4696L67.3683 34.5944L65.6369 38.0318L65.7377 37.9724H51.742L51.7312 38.0656C51.655 38.7837 51.6736 39.5078 51.7865 40.2218L51.8013 40.31H64.6638L64.563 40.1628L62.8312 43.6002L62.9315 43.5408H53.1054L53.219 43.6998C54.9528 46.1462 57.8648 47.6048 61.0089 47.6048C63.6813 47.6048 66.2302 46.5352 68.0026 44.6689L67.807 44.6008V48.8138L67.8564 48.7288C65.7007 50.0576 63.1784 50.7597 60.5619 50.7597C55.3416 50.7597 50.6538 47.9499 48.6187 43.6025L48.589 43.5408H43.922L44.0237 43.6884L45.7551 40.2496L45.6538 40.31H47.6742L47.6618 40.1957C47.6198 39.8072 47.5976 39.4173 47.5976 39.0383C47.5976 38.7472 47.6134 38.4345 47.6445 38.0839L47.6544 37.9724H43.7595L43.8597 38.1191L45.5921 34.6817L45.4918 34.7411H48.5001L48.5283 34.6771C49.4821 32.5292 51.1038 30.6976 53.218 29.3794C55.3826 28.0305 57.9231 27.3169 60.5619 27.3169C63.9421 27.3169 67.1416 28.4871 69.5739 30.6149L69.5492 30.4961L68.0455 33.4818L68.2333 33.4599C66.4515 31.4349 63.8191 30.2725 61.0084 30.2725C57.7018 30.2725 54.614 31.9254 52.9468 34.5862L52.85 34.7411H53.0436Z" fill="#F5C142"/>
</svg>
