<svg width="61" height="60" viewBox="0 0 61 60" fill="none" xmlns="http://www.w3.org/2000/svg">
<path fill-rule="evenodd" clip-rule="evenodd" d="M31.6255 54.701C30.8885 55.098 29.9635 55.1005 29.2265 54.7036C8.99962 43.8094 7.79889 22.5039 7.88412 16.4893C7.8911 16.0094 8.03469 15.5417 8.2978 15.1419C8.5609 14.7421 8.93243 14.427 9.36811 14.2341L29.407 5.21839C29.7278 5.07482 30.0748 5.00044 30.4258 5C30.7767 4.99957 31.1239 5.07309 31.445 5.21586L51.6243 14.2316C52.0665 14.4243 52.4433 14.743 52.7087 15.1485C52.9741 15.554 53.1164 16.0287 53.1183 16.5146C53.1359 22.5596 51.7095 43.8195 31.6255 54.701ZM29.969 35.9522C28.5864 35.9522 27.5196 35.4337 26.7684 34.3966C26.0281 33.3486 25.658 31.8748 25.658 29.9753C25.658 28.043 26.0281 26.5747 26.7684 25.5704C27.5196 24.5551 28.5864 24.0475 29.969 24.0475C31.3624 24.0475 32.4292 24.5551 33.1695 25.5704C33.9098 26.5747 34.2799 28.0376 34.2799 29.9589C34.2799 31.8694 33.9098 33.3486 33.1695 34.3966C32.4292 35.4337 31.3624 35.9522 29.969 35.9522ZM29.969 33.889C30.6004 33.889 31.0685 33.5778 31.3733 32.9556C31.689 32.3224 31.8468 31.3235 31.8468 29.9589C31.8468 28.5943 31.689 27.6118 31.3733 27.0114C31.0685 26.411 30.6004 26.1107 29.969 26.1107C29.3376 26.1107 28.864 26.411 28.5483 27.0114C28.2435 27.6118 28.0911 28.5889 28.0911 29.9425C28.0911 31.3181 28.2489 32.3224 28.5646 32.9556C28.8803 33.5778 29.3484 33.889 29.969 33.889ZM16.9282 35.7721V33.6761H19.5409V27.0537L17.2058 28.4196V26.0289L20.2757 24.2276H22.0883V33.6761H24.5377V35.7721H16.9282ZM36.5596 34.3966C37.3108 35.4337 38.3776 35.9522 39.7602 35.9522C41.1536 35.9522 42.2204 35.4337 42.9607 34.3966C43.701 33.3486 44.0711 31.8694 44.0711 29.9589C44.0711 28.0376 43.701 26.5747 42.9607 25.5704C42.2204 24.5551 41.1536 24.0475 39.7602 24.0475C38.3776 24.0475 37.3108 24.5551 36.5596 25.5704C35.8193 26.5747 35.4492 28.043 35.4492 29.9753C35.4492 31.8748 35.8193 33.3486 36.5596 34.3966ZM41.1645 32.9556C40.8597 33.5778 40.3915 33.889 39.7602 33.889C39.1396 33.889 38.6715 33.5778 38.3558 32.9556C38.0401 32.3224 37.8823 31.3181 37.8823 29.9425C37.8823 28.5889 38.0347 27.6118 38.3395 27.0114C38.6552 26.411 39.1288 26.1107 39.7602 26.1107C40.3915 26.1107 40.8597 26.411 41.1645 27.0114C41.4802 27.6118 41.638 28.5943 41.638 29.9589C41.638 31.3235 41.4802 32.3224 41.1645 32.9556Z" fill="#FF6E48"/>
</svg>
