<svg width="44" height="44" viewBox="0 0 44 44" fill="none" xmlns="http://www.w3.org/2000/svg">
  <g clip-path="url(#clip0_2456_10395)">
    <path
      d="M21.9619 0C10.3847 0 0.900678 8.91137 0 20.2353L11.8119 25.1106C12.8125 24.4267 14.0223 24.0282 15.3226 24.0282C15.44 24.0282 15.5557 24.0314 15.6699 24.0376L20.9233 16.4361V16.3294C20.9233 11.7553 24.6513 8.03294 29.234 8.03294C33.8166 8.03294 37.5446 11.7553 37.5446 16.3294C37.5446 20.9035 33.8166 24.6275 29.234 24.6275C29.1705 24.6275 29.1087 24.6259 29.0453 24.6243L21.5528 29.9592C21.5576 30.058 21.5608 30.1569 21.5608 30.2541C21.5608 33.6894 18.762 36.4831 15.3226 36.4831C12.3034 36.4831 9.77742 34.331 9.20657 31.4824L0.757965 27.9953C3.37437 37.2298 11.8737 44 21.9619 44C34.1338 44 44 34.149 44 22C44 9.84941 34.1338 0 21.9619 0ZM13.8105 33.3813L11.1037 32.2645C11.5826 33.2621 12.4135 34.0966 13.5156 34.5547C15.8973 35.546 18.6437 34.4182 19.6364 32.0386C20.1168 30.8872 20.12 29.6166 19.6443 28.4621C19.1686 27.3076 18.2695 26.4072 17.1167 25.9272C15.9702 25.4519 14.7429 25.4692 13.6646 25.8755L16.4618 27.03C18.2187 27.7609 19.0496 29.7751 18.3171 31.5288C17.586 33.2825 15.5674 34.1123 13.8105 33.3813ZM34.7719 16.3296C34.7719 13.2817 32.2871 10.8002 29.2346 10.8002C26.1805 10.8002 23.6957 13.2817 23.6957 16.3296C23.6957 19.3774 26.1805 21.8574 29.2346 21.8574C32.2871 21.8574 34.7719 19.3774 34.7719 16.3296ZM25.0832 16.3202C25.0832 14.0268 26.9464 12.168 29.2425 12.168C31.5402 12.168 33.4034 14.0268 33.4034 16.3202C33.4034 18.6135 31.5402 20.4723 29.2425 20.4723C26.9464 20.4723 25.0832 18.6135 25.0832 16.3202Z"
      fill="#fff"/>
  </g>
  <defs>
    <clipPath id="clip0_2456_10395">
      <rect width="44" height="44" fill="white"/>
    </clipPath>
  </defs>
</svg>
