<svg width="18" height="18" viewBox="0 0 18 18" fill="none" xmlns="http://www.w3.org/2000/svg">
<g clip-path="url(#clip0_723_956)">
<g clip-path="url(#clip1_723_956)">
<path d="M14.7399 7.00734C14.7399 7.6657 14.1806 8.19962 13.4907 8.19962C12.8001 8.19962 12.2412 7.6657 12.2412 7.00734C12.2412 6.34898 12.8004 5.81519 13.4907 5.81519C14.1806 5.81519 14.7399 6.34898 14.7399 7.00734ZM14.2365 9.02178L12.7236 10.2566C12.74 10.3552 12.751 10.4553 12.751 10.558C12.751 11.6092 11.858 12.4616 10.7567 12.4616C9.80657 12.4616 9.01319 11.8274 8.81219 10.9788L5.07255 9.76793C4.77705 9.98201 4.4097 10.1108 4.0101 10.1108C3.0381 10.1106 2.25 9.35829 2.25 8.43066C2.25 7.50319 3.0381 6.75129 4.0101 6.75129C4.8459 6.75129 5.544 7.30735 5.72415 8.05235L9.33662 9.22207C9.6885 8.88169 10.1738 8.66832 10.7115 8.65683L11.2525 7.08723C11.2509 7.05604 11.2476 7.0253 11.2476 6.99383C11.2476 5.80772 12.2556 4.84619 13.4988 4.84619C14.7419 4.84619 15.75 5.80772 15.75 6.99383C15.75 7.93352 15.1169 8.7301 14.2365 9.02178ZM5.1168 7.85579C4.9065 7.49457 4.50285 7.24988 4.0392 7.24988C3.3585 7.24988 2.80665 7.77647 2.80665 8.42592C2.80665 9.07537 3.3585 9.60183 4.0392 9.60183C4.16505 9.60183 4.28625 9.58387 4.40055 9.55039L3.81495 9.36087C3.34305 9.11977 3.16545 8.55926 3.4182 8.10896C3.6711 7.65894 4.2585 7.48968 4.72995 7.73078L5.1168 7.85579ZM11.7432 6.999C11.7432 7.9203 12.5259 8.66717 13.4915 8.66717C14.457 8.66717 15.2402 7.9203 15.2402 6.999C15.2402 6.07727 14.4569 5.33041 13.4915 5.33041C12.5259 5.33041 11.7432 6.07727 11.7432 6.999ZM11.7777 10.7213C11.7777 10.0199 11.1818 9.4511 10.4467 9.4511C10.3436 9.4511 10.244 9.46346 10.1477 9.48444L10.8915 9.72525C11.3632 9.96663 11.5404 10.527 11.2878 10.9769C11.0351 11.4276 10.4477 11.5964 9.97621 11.3555L9.17462 11.0958C9.34202 11.6144 9.84827 11.9913 10.4467 11.9913C11.1818 11.9915 11.7777 11.4226 11.7777 10.7213Z" fill="white"/>
</g>
</g>
<defs>
<clipPath id="clip0_723_956">
<rect width="13.5" height="13.5" fill="white" transform="translate(2.25 2.25)"/>
</clipPath>
<clipPath id="clip1_723_956">
<rect width="13.5" height="8.30769" fill="white" transform="translate(2.25 4.84619)"/>
</clipPath>
</defs>
</svg>
