<svg width="207" height="82" viewBox="0 0 207 82" fill="none" xmlns="http://www.w3.org/2000/svg">
<g id="Frame 1321318912">
<g id="Group 1000002652">
<g id="Vector 565">
<path d="M114.377 39.1538L107.724 25.3711L105.088 30.9818L107.724 36.3485L114.377 39.1538Z" fill="#D9D9D9"/>
<path d="M114.377 39.1538L107.724 25.3711L105.088 30.9818L107.724 36.3485L114.377 39.1538Z" fill="#C18714"/>
</g>
<g id="Vector 566">
<path d="M102.452 36.5916L107.724 36.3477L115.004 39.3969L100.569 40.4947L102.452 36.5916Z" fill="#D9D9D9"/>
<path d="M102.452 36.5916L107.724 36.3477L115.004 39.3969L100.569 40.4947L102.452 36.5916Z" fill="#DCA11C"/>
</g>
<g id="Vector 568">
<path d="M91.4058 39.8852L103.079 14.2713L97.1799 14.0273L86.1338 37.4458L91.4058 39.8852Z" fill="#D9D9D9"/>
<path d="M91.4058 39.8852L103.079 14.2713L97.1799 14.0273L86.1338 37.4458L91.4058 39.8852Z" fill="#AE7E14"/>
</g>
<g id="Vector 569">
<path d="M86.1335 37.4453L91.4055 39.8847L72.577 41.2264C72.5352 41.0231 73.2297 40.1043 73.3301 39.5188C73.4306 38.9334 73.623 38.2178 73.7067 37.9332L86.1335 37.4453Z" fill="#D9D9D9"/>
<path d="M86.1335 37.4453L91.4055 39.8847L72.577 41.2264C72.5352 41.0231 73.2297 40.1043 73.3301 39.5188C73.4306 38.9334 73.623 38.2178 73.7067 37.9332L86.1335 37.4453Z" fill="#C49019"/>
</g>
<g id="Vector 570">
<path d="M81.1129 47.4469L87.8911 46.959L81.9915 59.644L77.3472 55.8629L81.1129 47.4469Z" fill="#D9D9D9"/>
<path d="M81.1129 47.4469L87.8911 46.959L81.9915 59.644L77.3472 55.8629L81.1129 47.4469Z" fill="#B17E12"/>
</g>
<g id="Vector 571">
<path d="M67.3052 55.7401L63.7905 51.959H71.1964L75.0876 55.6181L67.3052 55.7401Z" fill="#D9D9D9"/>
<path d="M67.3052 55.7401L63.7905 51.959H71.1964L75.0876 55.6181L67.3052 55.7401Z" fill="#C08D18"/>
</g>
<g id="Vector 572">
<path d="M67.3052 55.7401C67.8073 57.6916 69.4642 61.985 70.0667 63.0584C70.6692 64.1317 71.824 66.7175 72.5772 67.9372C70.6943 65.6604 66.7278 60.6433 65.9244 58.7894C64.9202 56.4719 64.696 55.9402 64.4181 55.1302C64.1676 54.4 63.8338 52.0099 63.7908 51.9593C63.7907 51.9592 63.7906 51.9591 63.7905 51.959L63.7908 51.9593L67.3052 55.7401Z" fill="#D9D9D9"/>
<path d="M67.3052 55.7401C67.8073 57.6916 69.4642 61.985 70.0667 63.0584C70.6692 64.1317 71.824 66.7175 72.5772 67.9372C70.6943 65.6604 66.7278 60.6433 65.9244 58.7894C64.9202 56.4719 64.696 55.9402 64.4181 55.1302C64.1676 54.4 63.8338 52.0099 63.7908 51.9593C63.7907 51.9592 63.7906 51.9591 63.7905 51.959L63.7908 51.9593L67.3052 55.7401Z" fill="#6A5011"/>
</g>
<g id="Vector 573">
<path d="M115.506 52.5691L111.992 45.4948L117.389 45.1289L122.536 55.7404L115.506 52.5691Z" fill="#D9D9D9"/>
<path d="M115.506 52.5691L111.992 45.4948L117.389 45.1289L122.536 55.7404L115.506 52.5691Z" fill="#956C11"/>
</g>
<g id="Vector 574">
<path d="M129.063 47.9359C129.263 47.3504 129.648 44.8866 129.816 43.9108L138.1 43.5449C138.058 44.0328 137.95 45.2037 137.849 45.9843C137.724 46.9601 137.598 49.5215 136.468 53.0587C135.339 56.5958 131.95 60.7428 129.188 63.7921C126.678 67.2073 121.155 71.3543 118.519 72.818C115.465 74.5135 108.226 75.6233 103.456 75.8673C98.6859 76.1112 94.0415 74.1597 90.1503 72.818C87.0373 71.7446 81.4892 67.3293 79.9829 64.5239C80.7361 64.9712 82.644 66.1584 84.2507 67.3293C86.2591 68.7929 91.28 70.1346 98.0583 70.5005C105.088 70.88 110.154 68.427 113.749 66.5975C116.385 65.2558 123.623 58.1408 125.422 55.3761L130.192 54.6443L128.184 49.6435C128.351 49.3995 128.862 48.5213 129.063 47.9359Z" fill="#D9D9D9"/>
<path d="M129.063 47.9359C129.263 47.3504 129.648 44.8866 129.816 43.9108L138.1 43.5449C138.058 44.0328 137.95 45.2037 137.849 45.9843C137.724 46.9601 137.598 49.5215 136.468 53.0587C135.339 56.5958 131.95 60.7428 129.188 63.7921C126.678 67.2073 121.155 71.3543 118.519 72.818C115.465 74.5135 108.226 75.6233 103.456 75.8673C98.6859 76.1112 94.0415 74.1597 90.1503 72.818C87.0373 71.7446 81.4892 67.3293 79.9829 64.5239C80.7361 64.9712 82.644 66.1584 84.2507 67.3293C86.2591 68.7929 91.28 70.1346 98.0583 70.5005C105.088 70.88 110.154 68.427 113.749 66.5975C116.385 65.2558 123.623 58.1408 125.422 55.3761L130.192 54.6443L128.184 49.6435C128.351 49.3995 128.862 48.5213 129.063 47.9359Z" fill="#B28317"/>
</g>
<g id="Vector 575">
<path d="M137.347 30.4927L129.188 29.151C128.435 26.9148 126.602 21.9791 125.297 20.1251C123.665 17.8077 119.021 13.5387 115.381 11.0993C112.468 9.14773 106.887 7.8467 104.46 7.44013C104.795 7.31816 106.192 7.07422 109.104 7.07422C112.745 7.07422 117.012 8.04999 122.284 10.6114C127.556 13.1728 129.188 15.6122 132.075 18.2956C134.385 20.4422 136.343 27.3621 137.347 30.4927Z" fill="#D9D9D9"/>
<path d="M137.347 30.4927L129.188 29.151C128.435 26.9148 126.602 21.9791 125.297 20.1251C123.665 17.8077 119.021 13.5387 115.381 11.0993C112.468 9.14773 106.887 7.8467 104.46 7.44013C104.795 7.31816 106.192 7.07422 109.104 7.07422C112.745 7.07422 117.012 8.04999 122.284 10.6114C127.556 13.1728 129.188 15.6122 132.075 18.2956C134.385 20.4422 136.343 27.3621 137.347 30.4927Z" fill="#A37410"/>
</g>
<g id="Vector 576">
<path d="M82.9956 5.368C87.1128 2.53827 98.1839 0.773758 102.201 0.367188L98.9371 1.22098L92.912 3.29449L84.5019 8.05136L75.0876 16.8333L69.6901 25.9811L65.5478 42.0813V48.7897L62.0332 45.6185V41.8373C62.0332 40.2517 61.7821 36.4706 62.6608 32.5675C63.5395 28.6645 64.7947 24.7614 68.6859 18.6628C72.5772 12.5643 77.8492 8.90516 82.9956 5.368Z" fill="#D9D9D9"/>
<path d="M82.9956 5.368C87.1128 2.53827 98.1839 0.773758 102.201 0.367188L98.9371 1.22098L92.912 3.29449L84.5019 8.05136L75.0876 16.8333L69.6901 25.9811L65.5478 42.0813V48.7897L62.0332 45.6185V41.8373C62.0332 40.2517 61.7821 36.4706 62.6608 32.5675C63.5395 28.6645 64.7947 24.7614 68.6859 18.6628C72.5772 12.5643 77.8492 8.90516 82.9956 5.368Z" fill="#785C13"/>
</g>
<path id="Subtract" fill-rule="evenodd" clip-rule="evenodd" d="M137.347 30.497L143.372 30.253C142.87 27.6103 141.414 21.6419 139.607 18.9097C137.347 15.4945 131.071 7.32245 124.042 4.02924C117.013 0.736017 111.113 0.126161 106.218 0.00419015C101.322 -0.117781 92.2845 2.44361 88.2677 5.005C84.2509 7.5664 80.9873 9.76197 78.2258 12.6893C75.4643 15.6166 70.9455 21.3492 68.9371 26.1061C66.9287 30.863 66.1756 33.5463 65.799 35.8638C65.4224 38.1812 65.1714 42.9381 65.1714 44.5237C65.1714 45.7922 65.4224 47.8169 65.548 48.6707L87.6401 47.2071L81.9915 59.6481L91.1547 58.9163L97.3054 46.3533L117.389 45.1336L122.536 55.7451L130.82 55.0132L125.925 44.2798L138.101 43.548C137.891 46.15 136.996 52.1835 135.088 55.5011C132.703 59.6481 128.686 64.8929 126.176 66.9664C123.665 69.0399 116.762 73.5528 113.623 74.1627C113.081 74.2681 112.467 74.4137 111.788 74.5748C108.538 75.3453 103.79 76.471 98.1841 75.2604C91.4058 73.7968 84.2509 69.2838 82.3681 67.2103C82.2455 67.0754 82.1187 66.9362 81.9884 66.7933C80.1168 64.7403 77.5247 61.897 76.4685 59.1603L74.9622 55.2572L67.3053 55.7451C67.8911 58.5911 69.8911 65.1368 73.2049 68.552C77.3472 72.821 83.2468 77.8218 88.7698 79.4074C94.2928 80.9931 99.8159 82.2128 104.837 81.9688C109.858 81.7249 118.142 79.5294 121.782 76.968C122.492 76.4691 123.229 75.9702 123.981 75.4613C127.091 73.3579 130.452 71.085 133.08 67.9422C136.343 64.0391 138.477 61.3557 139.858 58.1845C141.239 55.0132 143.121 49.4026 143.372 47.3291C143.624 45.2556 144 40.8646 144 39.8888V36.7176L123.163 37.8153L112.368 14.2749H103.079L91.4058 39.7669L73.0794 40.7426C73.6233 37.612 75.1882 30.5946 77.0961 27.5697C79.4811 23.7886 82.4936 19.3977 85.0041 16.9583C87.5146 14.5188 92.0334 11.1037 95.6736 9.76197C99.3138 8.42029 102.201 7.44452 106.594 7.20058C110.987 6.95664 114.879 7.81044 118.393 9.03015C121.908 10.2499 126.929 13.787 128.31 15.2507C129.69 16.7143 133.456 20.7394 134.335 22.8129C135.213 24.8864 136.092 27.3258 136.343 28.0576C136.505 28.5296 137.013 29.9278 137.347 30.497ZM107.724 25.3705L100.82 40.2509L114.377 39.2752L107.724 25.3705Z" fill="url(#paint0_linear_8200_36517)"/>
<g id="Vector 577">
<path d="M135.841 34.7637L122.033 35.4955L123.289 38.0569L144 36.7152L135.841 34.7637Z" fill="#D9D9D9"/>
<path d="M135.841 34.7637L122.033 35.4955L123.289 38.0569L144 36.7152L135.841 34.7637Z" fill="#B98A19"/>
</g>
</g>
</g>
<defs>
<linearGradient id="paint0_linear_8200_36517" x1="84.251" y1="5.36673" x2="129.513" y2="80.6878" gradientUnits="userSpaceOnUse">
<stop stop-color="#FFFF77"/>
<stop offset="1" stop-color="#FFD73B"/>
</linearGradient>
</defs>
</svg>
