<svg width="18" height="18" viewBox="0 0 18 18" fill="none" xmlns="http://www.w3.org/2000/svg">
<path d="M14.2217 2.36919C14.2217 2.36919 15.6092 1.78484 15.4931 3.20387C15.4549 3.78823 15.1081 5.83366 14.8381 8.04572L13.9131 14.599C13.9131 14.599 13.836 15.559 13.1421 15.726C12.4485 15.8927 11.4078 15.1417 11.215 14.9747C11.0607 14.8493 8.32428 12.9709 7.36072 12.0529C7.09072 11.8022 6.78216 11.3015 7.39929 10.7172L11.446 6.54299C11.9085 6.04233 12.371 4.87362 10.4439 6.29266L5.04754 10.2578C5.04754 10.2578 4.43076 10.6755 3.27471 10.2998L0.76903 9.46476C0.76903 9.46476 -0.155957 8.83875 1.42438 8.21274C5.27896 6.251 10.02 4.24761 14.221 2.36919H14.2217Z" fill="#FAFAFA"/>
</svg>
