<svg width="48" height="49" viewBox="0 0 48 49" fill="none" xmlns="http://www.w3.org/2000/svg">
  <g clip-path="url(#clip0_1_41882)">
    <path fill-rule="evenodd" clip-rule="evenodd"
          d="M47.8337 10.5547C47.8337 9.87973 47.2239 9.33252 46.4717 9.33252L1.5289 9.33252C0.776737 9.33252 0.166992 9.87973 0.166992 10.5547V16.5224C0.166992 17.0892 0.60591 17.5722 1.19815 17.769C4.57187 18.8903 6.97652 21.8038 6.97652 25.2214C6.97652 28.639 4.57188 31.5526 1.19816 32.6738C0.605912 32.8706 0.166992 33.3536 0.166992 33.9204V39.8881C0.166992 40.5631 0.776741 41.1103 1.5289 41.1103L46.4717 41.1103C47.2239 41.1103 47.8337 40.5631 47.8337 39.8881V33.9204C47.8337 33.3536 47.3947 32.8706 46.8025 32.6738C43.4288 31.5526 41.0241 28.639 41.0241 25.2214C41.0241 21.8038 43.4288 18.8902 46.8025 17.769C47.3947 17.5722 47.8337 17.0892 47.8337 16.5224V10.5547ZM22.7808 33.0311V35.3325H25.5987V32.9546C26.4675 32.824 27.241 32.5947 27.9193 32.2667C28.7244 31.8774 29.3558 31.37 29.8136 30.7443C30.2714 30.1047 30.5003 29.3748 30.5003 28.5544C30.5003 27.5117 30.1293 26.6635 29.3874 26.0101C28.6612 25.3566 27.5483 24.8908 26.0486 24.6127L23.4675 24.1122C22.6782 23.9593 22.1178 23.7646 21.7863 23.5282C21.4706 23.278 21.3127 22.9582 21.3127 22.5689C21.3127 22.0405 21.5732 21.6095 22.0941 21.2758C22.6309 20.9421 23.3728 20.7753 24.32 20.7753C25.2198 20.7753 26.0565 20.8935 26.83 21.1298C27.6035 21.3523 28.2824 21.686 28.8664 22.1309L29.9083 19.7534C29.34 19.2528 28.6139 18.8705 27.7298 18.6063C27.0341 18.3875 26.3237 18.2375 25.5987 18.1565V15.8325H22.7808V18.2082C21.9039 18.3238 21.1225 18.5469 20.4366 18.8774C19.6157 19.2806 18.9684 19.809 18.4949 20.4625C18.0371 21.1159 17.8082 21.8598 17.8082 22.694C17.8082 23.7785 18.1633 24.6614 18.8737 25.3427C19.5841 26.0101 20.6655 26.4828 22.1178 26.7609L24.7225 27.2614C25.5434 27.4282 26.1196 27.6298 26.4511 27.8662C26.7827 28.1026 26.9484 28.4085 26.9484 28.7839C26.9484 29.2288 26.7116 29.6111 26.238 29.9309C25.7644 30.2368 24.983 30.3897 23.8938 30.3897C22.8834 30.3897 21.9205 30.2577 21.0049 29.9935C20.0893 29.7293 19.2684 29.3678 18.5422 28.909L17.5003 31.4534C18.2265 31.94 19.1026 32.3224 20.1287 32.6004C20.9655 32.8272 21.8496 32.9708 22.7808 33.0311Z"
          fill="#fff"/>
  </g>
  <defs>
    <clipPath id="clip0_1_41882">
      <rect width="47.6667" height="47.6667" fill="white" transform="translate(0.166992 0.666016)"/>
    </clipPath>
  </defs>
</svg>
