<svg width="28" height="28" fill="none" xmlns="http://www.w3.org/2000/svg"><path fill-rule="evenodd" clip-rule="evenodd" d="M14.004 9.334a3.5 3.5 0 1 1-7.002-.002 3.5 3.5 0 0 1 7.002.002zm8.169 1.75A2.917 2.917 0 0 1 19.255 14a2.906 2.906 0 0 1-2.917-2.916 2.917 2.917 0 0 1 5.835 0zm-8.45 4.083a5.73 5.73 0 0 0-1.738 2.053l-1.109 2.205a3.499 3.499 0 0 0-.163 2.742H3.5a1.167 1.167 0 0 1-1.038-1.692l1.68-3.372a3.501 3.501 0 0 1 3.14-1.936h6.441zm-.71 6.443c.211.345.586.556.99.557h10.504a1.167 1.167 0 0 0 1.038-1.692l-1.108-2.216a3.501 3.501 0 0 0-3.128-1.925h-4.108a3.5 3.5 0 0 0-3.069 1.925l-1.167 2.216c-.182.361-.164.79.047 1.135z" fill="#FFF"/></svg>