<svg width="35" height="23" viewBox="0 0 35 23" fill="none" xmlns="http://www.w3.org/2000/svg">
<path d="M1.104 23C0.826663 23 0.64533 22.8827 0.559996 22.648C0.45333 22.392 0.495996 22.1573 0.687996 21.944L10.288 11.448L5.36 1.624C5.25333 1.38933 5.27466 1.16533 5.424 0.952C5.57333 0.717332 5.79733 0.599998 6.096 0.599998H10.224C10.608 0.599998 10.8747 0.685332 11.024 0.855999C11.1733 1.02667 11.2693 1.16533 11.312 1.272L14.288 7.288L18.5 2.82623C18.6067 2.71956 20.6053 1.31648 20.7973 1.14581C21.0107 0.975143 22.616 0.417725 23 0.417725L25.5 0.218431C25.7773 0.218431 25.9467 0.727999 26.032 0.983999C26.1173 1.21867 26.0747 1.44267 25.904 1.656L16.784 12.216L21.68 22.008C21.7867 22.2213 21.7653 22.4453 21.616 22.68C21.488 22.8933 21.264 23 20.944 23H16.848C16.464 23 16.1973 22.9147 16.048 22.744C15.8987 22.5733 15.8027 22.4453 15.76 22.36L12.784 16.504L7.376 22.36C7.29066 22.4453 7.152 22.5733 6.96 22.744C6.768 22.9147 6.46933 23 6.064 23H1.104Z" fill="white"/>
<path d="M16.9577 23C16.7231 23 16.5204 22.9253 16.3497 22.776C16.2004 22.6267 16.1257 22.4347 16.1257 22.2V19.928C16.1257 19.7787 16.1684 19.5547 16.2537 19.256C16.3391 18.936 16.5631 18.6373 16.9257 18.36L20.2537 15.096C21.9604 13.7947 23.3577 12.696 24.4457 11.8C25.5551 10.8827 26.3764 10.072 26.9097 9.368C27.4431 8.664 27.7097 8.00267 27.7097 7.384C27.7097 6.65867 27.5177 6.06133 27.1337 5.592C26.7711 5.10133 26.1311 4.856 25.2137 4.856C24.5951 4.856 22.9867 5.2 22 6C21.5947 6.256 21.4304 6.66945 21 7C20.5 7.384 20.3391 7.224 20.2537 7.672C20.1684 7.94933 20.0191 8.14133 19.8057 8.248C19.6137 8.35467 19.4004 8.408 19.1657 8.408L17.1817 8.344C16.9897 8.344 16.8297 8.28 16.7017 8.152C16.5737 8.024 16.5097 7.864 16.5097 7.672C16.5311 6.648 16.7444 5.688 17.1497 4.792C17.5764 3.896 18.1631 3.10667 18.9097 2.424C19.6777 1.72 20.5844 1.176 21.6297 0.792C22.6964 0.408 23.8911 0.216 25.2137 0.216C27.0271 0.216 28.5631 0.503999 29.8217 1.08C31.1017 1.656 32.0724 2.46667 32.7337 3.512C33.3951 4.536 33.7257 5.74133 33.7257 7.128C33.7257 8.17333 33.4911 9.15467 33.0217 10.072C32.5737 10.968 31.9231 11.832 31.0697 12.664C30.2377 13.4747 29.2457 14.3173 28.0937 15.192L25.1497 18.168H33.3737C33.6084 18.168 33.8004 18.2427 33.9497 18.392C34.1204 18.5413 34.2057 18.7333 34.2057 18.968V22.2C34.2057 22.4347 34.1204 22.6267 33.9497 22.776C33.8004 22.9253 33.6084 23 33.3737 23H16.9577Z" fill="white"/>
</svg>
